<?xml version="1.0" encoding="utf-8" standalone="no"?>
<!DOCTYPE svg PUBLIC "-//W3C//DTD SVG 1.1//EN"
  "http://www.w3.org/Graphics/SVG/1.1/DTD/svg11.dtd">
<svg xmlns:xlink="http://www.w3.org/1999/xlink" width="460.8pt" height="345.6pt" viewBox="0 0 460.8 345.6" xmlns="http://www.w3.org/2000/svg" version="1.1">
 <metadata>
  <rdf:RDF xmlns:dc="http://purl.org/dc/elements/1.1/" xmlns:cc="http://creativecommons.org/ns#" xmlns:rdf="http://www.w3.org/1999/02/22-rdf-syntax-ns#">
   <cc:Work>
    <dc:type rdf:resource="http://purl.org/dc/dcmitype/StillImage"/>
    <dc:date>2022-11-07T12:58:26.706342</dc:date>
    <dc:format>image/svg+xml</dc:format>
    <dc:creator>
     <cc:Agent>
      <dc:title>Matplotlib v3.6.2, https://matplotlib.org/</dc:title>
     </cc:Agent>
    </dc:creator>
   </cc:Work>
  </rdf:RDF>
 </metadata>
 <defs>
  <style type="text/css">*{stroke-linejoin: round; stroke-linecap: butt}</style>
 </defs>
 <g id="figure_1">
  <g id="patch_1">
   <path d="M 0 345.6 
L 460.8 345.6 
L 460.8 0 
L 0 0 
z
" style="fill: #ffffff"/>
  </g>
  <g id="axes_1">
   <g id="patch_2">
    <path d="M 57.6 307.584 
L 414.72 307.584 
L 414.72 41.472 
L 57.6 41.472 
z
" style="fill: #ffffff"/>
   </g>
   <g id="matplotlib.axis_1">
    <g id="xtick_1">
     <g id="line2d_1">
      <path d="M 73.832727 307.584 
L 73.832727 41.472 
" clip-path="url(#p63261d69c5)" style="fill: none; stroke: #b0b0b0; stroke-width: 0.8; stroke-linecap: square"/>
     </g>
     <g id="line2d_2">
      <defs>
       <path id="m08951386bd" d="M 0 0 
L 0 3.5 
" style="stroke: #000000; stroke-width: 0.8"/>
      </defs>
      <g>
       <use xlink:href="#m08951386bd" x="73.832727" y="307.584" style="stroke: #000000; stroke-width: 0.8"/>
      </g>
     </g>
     <g id="text_1">
      <!-- 0 -->
      <g transform="translate(70.651477 322.182437) scale(0.1 -0.1)">
       <defs>
        <path id="DejaVuSans-30" d="M 2034 4250 
Q 1547 4250 1301 3770 
Q 1056 3291 1056 2328 
Q 1056 1369 1301 889 
Q 1547 409 2034 409 
Q 2525 409 2770 889 
Q 3016 1369 3016 2328 
Q 3016 3291 2770 3770 
Q 2525 4250 2034 4250 
z
M 2034 4750 
Q 2819 4750 3233 4129 
Q 3647 3509 3647 2328 
Q 3647 1150 3233 529 
Q 2819 -91 2034 -91 
Q 1250 -91 836 529 
Q 422 1150 422 2328 
Q 422 3509 836 4129 
Q 1250 4750 2034 4750 
z
" transform="scale(0.015625)"/>
       </defs>
       <use xlink:href="#DejaVuSans-30"/>
      </g>
     </g>
    </g>
    <g id="xtick_2">
     <g id="line2d_3">
      <path d="M 138.789619 307.584 
L 138.789619 41.472 
" clip-path="url(#p63261d69c5)" style="fill: none; stroke: #b0b0b0; stroke-width: 0.8; stroke-linecap: square"/>
     </g>
     <g id="line2d_4">
      <g>
       <use xlink:href="#m08951386bd" x="138.789619" y="307.584" style="stroke: #000000; stroke-width: 0.8"/>
      </g>
     </g>
     <g id="text_2">
      <!-- 5 -->
      <g transform="translate(135.608369 322.182437) scale(0.1 -0.1)">
       <defs>
        <path id="DejaVuSans-35" d="M 691 4666 
L 3169 4666 
L 3169 4134 
L 1269 4134 
L 1269 2991 
Q 1406 3038 1543 3061 
Q 1681 3084 1819 3084 
Q 2600 3084 3056 2656 
Q 3513 2228 3513 1497 
Q 3513 744 3044 326 
Q 2575 -91 1722 -91 
Q 1428 -91 1123 -41 
Q 819 9 494 109 
L 494 744 
Q 775 591 1075 516 
Q 1375 441 1709 441 
Q 2250 441 2565 725 
Q 2881 1009 2881 1497 
Q 2881 1984 2565 2268 
Q 2250 2553 1709 2553 
Q 1456 2553 1204 2497 
Q 953 2441 691 2322 
L 691 4666 
z
" transform="scale(0.015625)"/>
       </defs>
       <use xlink:href="#DejaVuSans-35"/>
      </g>
     </g>
    </g>
    <g id="xtick_3">
     <g id="line2d_5">
      <path d="M 203.746511 307.584 
L 203.746511 41.472 
" clip-path="url(#p63261d69c5)" style="fill: none; stroke: #b0b0b0; stroke-width: 0.8; stroke-linecap: square"/>
     </g>
     <g id="line2d_6">
      <g>
       <use xlink:href="#m08951386bd" x="203.746511" y="307.584" style="stroke: #000000; stroke-width: 0.8"/>
      </g>
     </g>
     <g id="text_3">
      <!-- 10 -->
      <g transform="translate(197.384011 322.182437) scale(0.1 -0.1)">
       <defs>
        <path id="DejaVuSans-31" d="M 794 531 
L 1825 531 
L 1825 4091 
L 703 3866 
L 703 4441 
L 1819 4666 
L 2450 4666 
L 2450 531 
L 3481 531 
L 3481 0 
L 794 0 
L 794 531 
z
" transform="scale(0.015625)"/>
       </defs>
       <use xlink:href="#DejaVuSans-31"/>
       <use xlink:href="#DejaVuSans-30" x="63.623047"/>
      </g>
     </g>
    </g>
    <g id="xtick_4">
     <g id="line2d_7">
      <path d="M 268.703403 307.584 
L 268.703403 41.472 
" clip-path="url(#p63261d69c5)" style="fill: none; stroke: #b0b0b0; stroke-width: 0.8; stroke-linecap: square"/>
     </g>
     <g id="line2d_8">
      <g>
       <use xlink:href="#m08951386bd" x="268.703403" y="307.584" style="stroke: #000000; stroke-width: 0.8"/>
      </g>
     </g>
     <g id="text_4">
      <!-- 15 -->
      <g transform="translate(262.340903 322.182437) scale(0.1 -0.1)">
       <use xlink:href="#DejaVuSans-31"/>
       <use xlink:href="#DejaVuSans-35" x="63.623047"/>
      </g>
     </g>
    </g>
    <g id="xtick_5">
     <g id="line2d_9">
      <path d="M 333.660295 307.584 
L 333.660295 41.472 
" clip-path="url(#p63261d69c5)" style="fill: none; stroke: #b0b0b0; stroke-width: 0.8; stroke-linecap: square"/>
     </g>
     <g id="line2d_10">
      <g>
       <use xlink:href="#m08951386bd" x="333.660295" y="307.584" style="stroke: #000000; stroke-width: 0.8"/>
      </g>
     </g>
     <g id="text_5">
      <!-- 20 -->
      <g transform="translate(327.297795 322.182437) scale(0.1 -0.1)">
       <defs>
        <path id="DejaVuSans-32" d="M 1228 531 
L 3431 531 
L 3431 0 
L 469 0 
L 469 531 
Q 828 903 1448 1529 
Q 2069 2156 2228 2338 
Q 2531 2678 2651 2914 
Q 2772 3150 2772 3378 
Q 2772 3750 2511 3984 
Q 2250 4219 1831 4219 
Q 1534 4219 1204 4116 
Q 875 4013 500 3803 
L 500 4441 
Q 881 4594 1212 4672 
Q 1544 4750 1819 4750 
Q 2544 4750 2975 4387 
Q 3406 4025 3406 3419 
Q 3406 3131 3298 2873 
Q 3191 2616 2906 2266 
Q 2828 2175 2409 1742 
Q 1991 1309 1228 531 
z
" transform="scale(0.015625)"/>
       </defs>
       <use xlink:href="#DejaVuSans-32"/>
       <use xlink:href="#DejaVuSans-30" x="63.623047"/>
      </g>
     </g>
    </g>
    <g id="xtick_6">
     <g id="line2d_11">
      <path d="M 398.617187 307.584 
L 398.617187 41.472 
" clip-path="url(#p63261d69c5)" style="fill: none; stroke: #b0b0b0; stroke-width: 0.8; stroke-linecap: square"/>
     </g>
     <g id="line2d_12">
      <g>
       <use xlink:href="#m08951386bd" x="398.617187" y="307.584" style="stroke: #000000; stroke-width: 0.8"/>
      </g>
     </g>
     <g id="text_6">
      <!-- 25 -->
      <g transform="translate(392.254687 322.182437) scale(0.1 -0.1)">
       <use xlink:href="#DejaVuSans-32"/>
       <use xlink:href="#DejaVuSans-35" x="63.623047"/>
      </g>
     </g>
    </g>
    <g id="text_7">
     <!-- $t\,/\, \mathrm{ms}$ -->
     <g transform="translate(223.41 335.860562) scale(0.1 -0.1)">
      <defs>
       <path id="DejaVuSans-Oblique-74" d="M 2706 3500 
L 2619 3053 
L 1472 3053 
L 1100 1153 
Q 1081 1047 1072 975 
Q 1063 903 1063 863 
Q 1063 663 1183 572 
Q 1303 481 1569 481 
L 2150 481 
L 2053 0 
L 1503 0 
Q 991 0 739 200 
Q 488 400 488 806 
Q 488 878 497 964 
Q 506 1050 525 1153 
L 897 3053 
L 409 3053 
L 500 3500 
L 978 3500 
L 1172 4494 
L 1747 4494 
L 1556 3500 
L 2706 3500 
z
" transform="scale(0.015625)"/>
       <path id="DejaVuSans-2f" d="M 1625 4666 
L 2156 4666 
L 531 -594 
L 0 -594 
L 1625 4666 
z
" transform="scale(0.015625)"/>
       <path id="DejaVuSans-6d" d="M 3328 2828 
Q 3544 3216 3844 3400 
Q 4144 3584 4550 3584 
Q 5097 3584 5394 3201 
Q 5691 2819 5691 2113 
L 5691 0 
L 5113 0 
L 5113 2094 
Q 5113 2597 4934 2840 
Q 4756 3084 4391 3084 
Q 3944 3084 3684 2787 
Q 3425 2491 3425 1978 
L 3425 0 
L 2847 0 
L 2847 2094 
Q 2847 2600 2669 2842 
Q 2491 3084 2119 3084 
Q 1678 3084 1418 2786 
Q 1159 2488 1159 1978 
L 1159 0 
L 581 0 
L 581 3500 
L 1159 3500 
L 1159 2956 
Q 1356 3278 1631 3431 
Q 1906 3584 2284 3584 
Q 2666 3584 2933 3390 
Q 3200 3197 3328 2828 
z
" transform="scale(0.015625)"/>
       <path id="DejaVuSans-73" d="M 2834 3397 
L 2834 2853 
Q 2591 2978 2328 3040 
Q 2066 3103 1784 3103 
Q 1356 3103 1142 2972 
Q 928 2841 928 2578 
Q 928 2378 1081 2264 
Q 1234 2150 1697 2047 
L 1894 2003 
Q 2506 1872 2764 1633 
Q 3022 1394 3022 966 
Q 3022 478 2636 193 
Q 2250 -91 1575 -91 
Q 1294 -91 989 -36 
Q 684 19 347 128 
L 347 722 
Q 666 556 975 473 
Q 1284 391 1588 391 
Q 1994 391 2212 530 
Q 2431 669 2431 922 
Q 2431 1156 2273 1281 
Q 2116 1406 1581 1522 
L 1381 1569 
Q 847 1681 609 1914 
Q 372 2147 372 2553 
Q 372 3047 722 3315 
Q 1072 3584 1716 3584 
Q 2034 3584 2315 3537 
Q 2597 3491 2834 3397 
z
" transform="scale(0.015625)"/>
      </defs>
      <use xlink:href="#DejaVuSans-Oblique-74" transform="translate(0 0.09375)"/>
      <use xlink:href="#DejaVuSans-2f" transform="translate(55.444661 0.09375)"/>
      <use xlink:href="#DejaVuSans-6d" transform="translate(105.371743 0.09375)"/>
      <use xlink:href="#DejaVuSans-73" transform="translate(202.783853 0.09375)"/>
     </g>
    </g>
   </g>
   <g id="matplotlib.axis_2">
    <g id="ytick_1">
     <g id="line2d_13">
      <defs>
       <path id="m85490060f0" d="M 0 0 
L -3.5 0 
" style="stroke: #000000; stroke-width: 0.8"/>
      </defs>
      <g>
       <use xlink:href="#m85490060f0" x="57.6" y="281.257412" style="stroke: #000000; stroke-width: 0.8"/>
      </g>
     </g>
     <g id="text_8">
      <!-- −0.04 -->
      <g transform="translate(19.954687 285.056631) scale(0.1 -0.1)">
       <defs>
        <path id="DejaVuSans-2212" d="M 678 2272 
L 4684 2272 
L 4684 1741 
L 678 1741 
L 678 2272 
z
" transform="scale(0.015625)"/>
        <path id="DejaVuSans-2e" d="M 684 794 
L 1344 794 
L 1344 0 
L 684 0 
L 684 794 
z
" transform="scale(0.015625)"/>
        <path id="DejaVuSans-34" d="M 2419 4116 
L 825 1625 
L 2419 1625 
L 2419 4116 
z
M 2253 4666 
L 3047 4666 
L 3047 1625 
L 3713 1625 
L 3713 1100 
L 3047 1100 
L 3047 0 
L 2419 0 
L 2419 1100 
L 313 1100 
L 313 1709 
L 2253 4666 
z
" transform="scale(0.015625)"/>
       </defs>
       <use xlink:href="#DejaVuSans-2212"/>
       <use xlink:href="#DejaVuSans-30" x="83.789062"/>
       <use xlink:href="#DejaVuSans-2e" x="147.412109"/>
       <use xlink:href="#DejaVuSans-30" x="179.199219"/>
       <use xlink:href="#DejaVuSans-34" x="242.822266"/>
      </g>
     </g>
    </g>
    <g id="ytick_2">
     <g id="line2d_14">
      <g>
       <use xlink:href="#m85490060f0" x="57.6" y="236.786824" style="stroke: #000000; stroke-width: 0.8"/>
      </g>
     </g>
     <g id="text_9">
      <!-- −0.03 -->
      <g transform="translate(19.954687 240.586042) scale(0.1 -0.1)">
       <defs>
        <path id="DejaVuSans-33" d="M 2597 2516 
Q 3050 2419 3304 2112 
Q 3559 1806 3559 1356 
Q 3559 666 3084 287 
Q 2609 -91 1734 -91 
Q 1441 -91 1130 -33 
Q 819 25 488 141 
L 488 750 
Q 750 597 1062 519 
Q 1375 441 1716 441 
Q 2309 441 2620 675 
Q 2931 909 2931 1356 
Q 2931 1769 2642 2001 
Q 2353 2234 1838 2234 
L 1294 2234 
L 1294 2753 
L 1863 2753 
Q 2328 2753 2575 2939 
Q 2822 3125 2822 3475 
Q 2822 3834 2567 4026 
Q 2313 4219 1838 4219 
Q 1578 4219 1281 4162 
Q 984 4106 628 3988 
L 628 4550 
Q 988 4650 1302 4700 
Q 1616 4750 1894 4750 
Q 2613 4750 3031 4423 
Q 3450 4097 3450 3541 
Q 3450 3153 3228 2886 
Q 3006 2619 2597 2516 
z
" transform="scale(0.015625)"/>
       </defs>
       <use xlink:href="#DejaVuSans-2212"/>
       <use xlink:href="#DejaVuSans-30" x="83.789062"/>
       <use xlink:href="#DejaVuSans-2e" x="147.412109"/>
       <use xlink:href="#DejaVuSans-30" x="179.199219"/>
       <use xlink:href="#DejaVuSans-33" x="242.822266"/>
      </g>
     </g>
    </g>
    <g id="ytick_3">
     <g id="line2d_15">
      <g>
       <use xlink:href="#m85490060f0" x="57.6" y="192.316235" style="stroke: #000000; stroke-width: 0.8"/>
      </g>
     </g>
     <g id="text_10">
      <!-- −0.02 -->
      <g transform="translate(19.954687 196.115454) scale(0.1 -0.1)">
       <use xlink:href="#DejaVuSans-2212"/>
       <use xlink:href="#DejaVuSans-30" x="83.789062"/>
       <use xlink:href="#DejaVuSans-2e" x="147.412109"/>
       <use xlink:href="#DejaVuSans-30" x="179.199219"/>
       <use xlink:href="#DejaVuSans-32" x="242.822266"/>
      </g>
     </g>
    </g>
    <g id="ytick_4">
     <g id="line2d_16">
      <g>
       <use xlink:href="#m85490060f0" x="57.6" y="147.845647" style="stroke: #000000; stroke-width: 0.8"/>
      </g>
     </g>
     <g id="text_11">
      <!-- −0.01 -->
      <g transform="translate(19.954687 151.644866) scale(0.1 -0.1)">
       <use xlink:href="#DejaVuSans-2212"/>
       <use xlink:href="#DejaVuSans-30" x="83.789062"/>
       <use xlink:href="#DejaVuSans-2e" x="147.412109"/>
       <use xlink:href="#DejaVuSans-30" x="179.199219"/>
       <use xlink:href="#DejaVuSans-31" x="242.822266"/>
      </g>
     </g>
    </g>
    <g id="ytick_5">
     <g id="line2d_17">
      <g>
       <use xlink:href="#m85490060f0" x="57.6" y="103.375059" style="stroke: #000000; stroke-width: 0.8"/>
      </g>
     </g>
     <g id="text_12">
      <!-- 0.00 -->
      <g transform="translate(28.334375 107.174278) scale(0.1 -0.1)">
       <use xlink:href="#DejaVuSans-30"/>
       <use xlink:href="#DejaVuSans-2e" x="63.623047"/>
       <use xlink:href="#DejaVuSans-30" x="95.410156"/>
       <use xlink:href="#DejaVuSans-30" x="159.033203"/>
      </g>
     </g>
    </g>
    <g id="ytick_6">
     <g id="line2d_18">
      <g>
       <use xlink:href="#m85490060f0" x="57.6" y="58.904471" style="stroke: #000000; stroke-width: 0.8"/>
      </g>
     </g>
     <g id="text_13">
      <!-- 0.01 -->
      <g transform="translate(28.334375 62.703689) scale(0.1 -0.1)">
       <use xlink:href="#DejaVuSans-30"/>
       <use xlink:href="#DejaVuSans-2e" x="63.623047"/>
       <use xlink:href="#DejaVuSans-30" x="95.410156"/>
       <use xlink:href="#DejaVuSans-31" x="159.033203"/>
      </g>
     </g>
    </g>
    <g id="text_14">
     <!-- $U_\mathrm{Detektor} / \mathrm{V}$ -->
     <g transform="translate(13.875 198.828) rotate(-90) scale(0.1 -0.1)">
      <defs>
       <path id="DejaVuSans-Oblique-55" d="M 991 4666 
L 1625 4666 
L 1075 1831 
Q 1041 1641 1027 1517 
Q 1013 1394 1013 1300 
Q 1013 869 1253 645 
Q 1494 422 1959 422 
Q 2563 422 2898 753 
Q 3234 1084 3378 1831 
L 3928 4666 
L 4563 4666 
L 4000 1753 
Q 3816 809 3300 359 
Q 2784 -91 1888 -91 
Q 1188 -91 780 261 
Q 372 613 372 1216 
Q 372 1325 387 1461 
Q 403 1597 434 1753 
L 991 4666 
z
" transform="scale(0.015625)"/>
       <path id="DejaVuSans-44" d="M 1259 4147 
L 1259 519 
L 2022 519 
Q 2988 519 3436 956 
Q 3884 1394 3884 2338 
Q 3884 3275 3436 3711 
Q 2988 4147 2022 4147 
L 1259 4147 
z
M 628 4666 
L 1925 4666 
Q 3281 4666 3915 4102 
Q 4550 3538 4550 2338 
Q 4550 1131 3912 565 
Q 3275 0 1925 0 
L 628 0 
L 628 4666 
z
" transform="scale(0.015625)"/>
       <path id="DejaVuSans-65" d="M 3597 1894 
L 3597 1613 
L 953 1613 
Q 991 1019 1311 708 
Q 1631 397 2203 397 
Q 2534 397 2845 478 
Q 3156 559 3463 722 
L 3463 178 
Q 3153 47 2828 -22 
Q 2503 -91 2169 -91 
Q 1331 -91 842 396 
Q 353 884 353 1716 
Q 353 2575 817 3079 
Q 1281 3584 2069 3584 
Q 2775 3584 3186 3129 
Q 3597 2675 3597 1894 
z
M 3022 2063 
Q 3016 2534 2758 2815 
Q 2500 3097 2075 3097 
Q 1594 3097 1305 2825 
Q 1016 2553 972 2059 
L 3022 2063 
z
" transform="scale(0.015625)"/>
       <path id="DejaVuSans-74" d="M 1172 4494 
L 1172 3500 
L 2356 3500 
L 2356 3053 
L 1172 3053 
L 1172 1153 
Q 1172 725 1289 603 
Q 1406 481 1766 481 
L 2356 481 
L 2356 0 
L 1766 0 
Q 1100 0 847 248 
Q 594 497 594 1153 
L 594 3053 
L 172 3053 
L 172 3500 
L 594 3500 
L 594 4494 
L 1172 4494 
z
" transform="scale(0.015625)"/>
       <path id="DejaVuSans-6b" d="M 581 4863 
L 1159 4863 
L 1159 1991 
L 2875 3500 
L 3609 3500 
L 1753 1863 
L 3688 0 
L 2938 0 
L 1159 1709 
L 1159 0 
L 581 0 
L 581 4863 
z
" transform="scale(0.015625)"/>
       <path id="DejaVuSans-6f" d="M 1959 3097 
Q 1497 3097 1228 2736 
Q 959 2375 959 1747 
Q 959 1119 1226 758 
Q 1494 397 1959 397 
Q 2419 397 2687 759 
Q 2956 1122 2956 1747 
Q 2956 2369 2687 2733 
Q 2419 3097 1959 3097 
z
M 1959 3584 
Q 2709 3584 3137 3096 
Q 3566 2609 3566 1747 
Q 3566 888 3137 398 
Q 2709 -91 1959 -91 
Q 1206 -91 779 398 
Q 353 888 353 1747 
Q 353 2609 779 3096 
Q 1206 3584 1959 3584 
z
" transform="scale(0.015625)"/>
       <path id="DejaVuSans-72" d="M 2631 2963 
Q 2534 3019 2420 3045 
Q 2306 3072 2169 3072 
Q 1681 3072 1420 2755 
Q 1159 2438 1159 1844 
L 1159 0 
L 581 0 
L 581 3500 
L 1159 3500 
L 1159 2956 
Q 1341 3275 1631 3429 
Q 1922 3584 2338 3584 
Q 2397 3584 2469 3576 
Q 2541 3569 2628 3553 
L 2631 2963 
z
" transform="scale(0.015625)"/>
       <path id="DejaVuSans-56" d="M 1831 0 
L 50 4666 
L 709 4666 
L 2188 738 
L 3669 4666 
L 4325 4666 
L 2547 0 
L 1831 0 
z
" transform="scale(0.015625)"/>
      </defs>
      <use xlink:href="#DejaVuSans-Oblique-55" transform="translate(0 0.09375)"/>
      <use xlink:href="#DejaVuSans-44" transform="translate(73.193359 -16.3125) scale(0.7)"/>
      <use xlink:href="#DejaVuSans-65" transform="translate(127.094727 -16.3125) scale(0.7)"/>
      <use xlink:href="#DejaVuSans-74" transform="translate(170.161133 -16.3125) scale(0.7)"/>
      <use xlink:href="#DejaVuSans-65" transform="translate(197.607422 -16.3125) scale(0.7)"/>
      <use xlink:href="#DejaVuSans-6b" transform="translate(240.673828 -16.3125) scale(0.7)"/>
      <use xlink:href="#DejaVuSans-74" transform="translate(281.210938 -16.3125) scale(0.7)"/>
      <use xlink:href="#DejaVuSans-6f" transform="translate(308.657227 -16.3125) scale(0.7)"/>
      <use xlink:href="#DejaVuSans-72" transform="translate(351.484375 -16.3125) scale(0.7)"/>
      <use xlink:href="#DejaVuSans-2f" transform="translate(382.998047 0.09375)"/>
      <use xlink:href="#DejaVuSans-56" transform="translate(416.689453 0.09375)"/>
     </g>
    </g>
   </g>
   <g id="line2d_19">
    <path d="M 73.832727 67.798588 
L 73.962641 64.240941 
L 74.482296 64.240941 
L 74.61221 67.798588 
L 74.742124 67.798588 
L 74.872038 64.240941 
L 75.391693 64.240941 
L 75.521606 67.798588 
L 75.65152 60.683294 
L 75.781434 67.798588 
L 75.911348 64.240941 
L 76.041262 64.240941 
L 76.171175 60.683294 
L 76.301089 67.798588 
L 76.431003 67.798588 
L 76.560917 64.240941 
L 77.210486 64.240941 
L 77.340399 67.798588 
L 77.470313 67.798588 
L 77.600227 64.240941 
L 77.730141 64.240941 
L 77.860055 60.683294 
L 77.989968 64.240941 
L 78.119882 60.683294 
L 78.509623 60.683294 
L 78.639537 64.240941 
L 78.769451 60.683294 
L 78.899365 60.683294 
L 79.029279 64.240941 
L 79.159192 60.683294 
L 79.289106 60.683294 
L 79.41902 64.240941 
L 80.328416 64.240941 
L 80.45833 67.798588 
L 80.588244 60.683294 
L 80.718158 64.240941 
L 80.848072 64.240941 
L 80.977985 67.798588 
L 81.107899 60.683294 
L 81.237813 60.683294 
L 81.367727 64.240941 
L 81.627554 64.240941 
L 81.757468 60.683294 
L 82.017296 60.683294 
L 82.147209 64.240941 
L 83.18652 64.240941 
L 83.316433 60.683294 
L 83.446347 60.683294 
L 83.576261 64.240941 
L 84.22583 64.240941 
L 84.355744 60.683294 
L 84.485658 64.240941 
L 84.745485 64.240941 
L 84.875399 60.683294 
L 85.005313 64.240941 
L 85.135226 60.683294 
L 85.654882 60.683294 
L 85.784795 64.240941 
L 85.914709 60.683294 
L 86.044623 64.240941 
L 86.434364 64.240941 
L 86.564278 60.683294 
L 86.694192 60.683294 
L 86.824106 64.240941 
L 86.954019 60.683294 
L 87.213847 60.683294 
L 87.343761 64.240941 
L 87.603588 57.125647 
L 87.733502 60.683294 
L 87.99333 60.683294 
L 88.123243 53.568 
L 88.253157 60.683294 
L 89.292468 60.683294 
L 89.422381 57.125647 
L 89.552295 60.683294 
L 89.682209 60.683294 
L 89.812123 64.240941 
L 89.942036 60.683294 
L 90.201864 60.683294 
L 90.331778 64.240941 
L 90.461692 60.683294 
L 90.851433 60.683294 
L 90.981347 64.240941 
L 91.111261 60.683294 
L 91.241174 60.683294 
L 91.371088 57.125647 
L 91.501002 60.683294 
L 91.890743 60.683294 
L 92.020657 57.125647 
L 92.150571 60.683294 
L 92.80014 60.683294 
L 92.930053 64.240941 
L 93.059967 60.683294 
L 93.449709 60.683294 
L 93.579622 64.240941 
L 93.709536 60.683294 
L 93.83945 60.683294 
L 93.969364 64.240941 
L 94.099278 60.683294 
L 94.618933 60.683294 
L 94.748846 57.125647 
L 94.87876 60.683294 
L 95.008674 57.125647 
L 95.138588 57.125647 
L 95.268502 60.683294 
L 95.398415 60.683294 
L 95.528329 57.125647 
L 95.658243 57.125647 
L 95.788157 60.683294 
L 95.918071 57.125647 
L 96.047984 57.125647 
L 96.177898 60.683294 
L 96.697553 60.683294 
L 96.827467 57.125647 
L 96.957381 60.683294 
L 97.087295 57.125647 
L 97.347122 64.240941 
L 97.477036 60.683294 
L 97.60695 64.240941 
L 97.736863 60.683294 
L 98.256519 60.683294 
L 98.386432 57.125647 
L 98.64626 57.125647 
L 98.776174 60.683294 
L 99.68557 60.683294 
L 99.815484 57.125647 
L 99.945398 57.125647 
L 100.075312 60.683294 
L 100.205225 57.125647 
L 100.465053 57.125647 
L 100.594967 60.683294 
L 100.72488 60.683294 
L 100.854794 57.125647 
L 100.984708 60.683294 
L 101.114622 60.683294 
L 101.244536 57.125647 
L 101.374449 57.125647 
L 101.504363 60.683294 
L 101.634277 60.683294 
L 101.764191 57.125647 
L 101.894105 60.683294 
L 102.024018 53.568 
L 102.283846 60.683294 
L 102.41376 57.125647 
L 102.673587 57.125647 
L 102.933415 64.240941 
L 103.063329 57.125647 
L 103.323156 57.125647 
L 103.45307 60.683294 
L 103.712898 53.568 
L 103.972725 60.683294 
L 104.102639 57.125647 
L 104.232553 64.240941 
L 104.49238 57.125647 
L 104.752208 57.125647 
L 104.882122 60.683294 
L 105.012035 57.125647 
L 105.141949 60.683294 
L 105.271863 53.568 
L 105.401777 57.125647 
L 105.53169 53.568 
L 105.661604 53.568 
L 106.051346 64.240941 
L 106.181259 53.568 
L 106.441087 60.683294 
L 106.571001 57.125647 
L 106.700915 57.125647 
L 106.830828 60.683294 
L 107.090656 60.683294 
L 107.22057 57.125647 
L 107.610311 57.125647 
L 107.740225 60.683294 
L 107.870139 60.683294 
L 108.000052 57.125647 
L 108.129966 57.125647 
L 108.25988 60.683294 
L 108.389794 57.125647 
L 108.519708 57.125647 
L 108.649621 60.683294 
L 108.779535 57.125647 
L 108.909449 57.125647 
L 109.039363 60.683294 
L 109.169276 60.683294 
L 109.29919 57.125647 
L 109.429104 57.125647 
L 109.559018 60.683294 
L 109.688932 57.125647 
L 109.818845 60.683294 
L 110.078673 60.683294 
L 110.208587 53.568 
L 110.3385 60.683294 
L 110.468414 53.568 
L 110.598328 53.568 
L 110.858156 60.683294 
L 110.988069 53.568 
L 111.247897 60.683294 
L 111.637638 60.683294 
L 111.767552 53.568 
L 112.02738 60.683294 
L 112.676949 60.683294 
L 112.806862 57.125647 
L 113.06669 57.125647 
L 113.196604 60.683294 
L 113.326518 53.568 
L 113.456431 60.683294 
L 113.976086 60.683294 
L 114.106 57.125647 
L 114.365828 57.125647 
L 114.495742 60.683294 
L 114.625655 57.125647 
L 114.885483 57.125647 
L 115.015397 53.568 
L 115.14531 53.568 
L 115.275224 57.125647 
L 115.405138 64.240941 
L 115.535052 60.683294 
L 115.664966 60.683294 
L 115.794879 53.568 
L 116.054707 60.683294 
L 117.353845 60.683294 
L 117.483759 57.125647 
L 118.263241 57.125647 
L 118.393155 60.683294 
L 119.302552 60.683294 
L 119.432465 57.125647 
L 119.562379 60.683294 
L 119.692293 57.125647 
L 119.822207 60.683294 
L 119.95212 57.125647 
L 120.082034 60.683294 
L 120.211948 60.683294 
L 120.341862 57.125647 
L 120.601689 64.240941 
L 120.731603 60.683294 
L 120.861517 60.683294 
L 120.991431 57.125647 
L 121.121345 57.125647 
L 121.251258 60.683294 
L 121.381172 53.568 
L 121.511086 60.683294 
L 121.770913 60.683294 
L 121.900827 57.125647 
L 122.030741 57.125647 
L 122.160655 64.240941 
L 122.420482 57.125647 
L 122.550396 60.683294 
L 122.68031 57.125647 
L 122.810224 57.125647 
L 122.940138 60.683294 
L 123.070051 60.683294 
L 123.199965 57.125647 
L 123.329879 60.683294 
L 123.71962 60.683294 
L 123.849534 57.125647 
L 123.979448 60.683294 
L 124.109362 57.125647 
L 124.239275 60.683294 
L 124.369189 57.125647 
L 124.499103 60.683294 
L 124.75893 60.683294 
L 124.888844 53.568 
L 125.148672 60.683294 
L 125.278586 57.125647 
L 125.408499 60.683294 
L 126.44781 60.683294 
L 126.577723 57.125647 
L 126.707637 60.683294 
L 127.227292 60.683294 
L 127.357206 57.125647 
L 127.48712 60.683294 
L 128.136689 60.683294 
L 128.266603 57.125647 
L 128.396516 60.683294 
L 128.52643 60.683294 
L 128.656344 57.125647 
L 129.046085 57.125647 
L 129.175999 60.683294 
L 130.605051 60.683294 
L 130.734965 57.125647 
L 130.864878 60.683294 
L 131.25462 60.683294 
L 131.384533 57.125647 
L 131.644361 57.125647 
L 131.774275 53.568 
L 131.904189 57.125647 
L 132.034102 57.125647 
L 132.164016 60.683294 
L 133.33324 60.683294 
L 133.463154 57.125647 
L 133.593068 60.683294 
L 133.722982 60.683294 
L 133.852895 57.125647 
L 133.982809 60.683294 
L 134.37255 60.683294 
L 134.502464 57.125647 
L 134.632378 60.683294 
L 134.762292 57.125647 
L 134.892206 57.125647 
L 135.022119 60.683294 
L 135.152033 57.125647 
L 135.281947 57.125647 
L 135.411861 60.683294 
L 136.581085 60.683294 
L 136.710999 57.125647 
L 136.970826 64.240941 
L 137.10074 60.683294 
L 137.360567 60.683294 
L 137.490481 64.240941 
L 137.750309 57.125647 
L 137.880223 60.683294 
L 139.569102 60.683294 
L 139.699016 57.125647 
L 139.828929 60.683294 
L 139.958843 60.683294 
L 140.088757 64.240941 
L 140.218671 60.683294 
L 140.478498 60.683294 
L 140.608412 67.798588 
L 140.738326 60.683294 
L 141.257981 60.683294 
L 141.387895 64.240941 
L 141.517809 60.683294 
L 141.647722 60.683294 
L 141.777636 64.240941 
L 141.90755 60.683294 
L 142.037464 60.683294 
L 142.167377 64.240941 
L 142.297291 60.683294 
L 142.427205 67.798588 
L 142.687033 60.683294 
L 143.206688 60.683294 
L 143.336602 64.240941 
L 143.466515 60.683294 
L 143.596429 67.798588 
L 143.856257 60.683294 
L 143.98617 60.683294 
L 144.116084 64.240941 
L 144.375912 64.240941 
L 144.505826 60.683294 
L 144.765653 60.683294 
L 144.895567 64.240941 
L 145.025481 57.125647 
L 145.285308 64.240941 
L 145.545136 64.240941 
L 145.67505 60.683294 
L 146.064791 60.683294 
L 146.194705 64.240941 
L 146.584446 64.240941 
L 146.71436 60.683294 
L 146.844274 64.240941 
L 146.974187 64.240941 
L 147.104101 60.683294 
L 147.363929 60.683294 
L 147.493843 64.240941 
L 147.623756 60.683294 
L 148.143412 60.683294 
L 148.273325 64.240941 
L 148.403239 60.683294 
L 148.533153 64.240941 
L 148.663067 64.240941 
L 148.79298 60.683294 
L 148.922894 64.240941 
L 149.052808 60.683294 
L 149.182722 60.683294 
L 149.312636 64.240941 
L 149.442549 60.683294 
L 149.572463 64.240941 
L 150.351946 64.240941 
L 150.48186 60.683294 
L 150.611773 64.240941 
L 150.741687 60.683294 
L 150.871601 64.240941 
L 151.001515 64.240941 
L 151.131429 60.683294 
L 151.261342 64.240941 
L 151.391256 60.683294 
L 151.52117 64.240941 
L 151.651084 60.683294 
L 151.780997 64.240941 
L 151.910911 57.125647 
L 152.040825 64.240941 
L 152.300653 64.240941 
L 152.430566 67.798588 
L 152.690394 67.798588 
L 152.820308 64.240941 
L 153.210049 64.240941 
L 153.339963 67.798588 
L 153.469877 64.240941 
L 153.59979 64.240941 
L 153.729704 60.683294 
L 153.989532 60.683294 
L 154.119446 64.240941 
L 154.509187 64.240941 
L 154.639101 60.683294 
L 154.769015 67.798588 
L 154.898928 67.798588 
L 155.028842 60.683294 
L 155.158756 64.240941 
L 155.28867 64.240941 
L 155.418583 71.356235 
L 155.548497 67.798588 
L 155.678411 71.356235 
L 155.808325 67.798588 
L 156.068152 67.798588 
L 156.198066 71.356235 
L 156.32798 71.356235 
L 156.457894 64.240941 
L 156.587807 67.798588 
L 156.847635 67.798588 
L 157.107463 60.683294 
L 157.36729 67.798588 
L 157.497204 60.683294 
L 157.627118 64.240941 
L 158.146773 64.240941 
L 158.276687 60.683294 
L 158.4066 64.240941 
L 158.666428 64.240941 
L 158.796342 67.798588 
L 158.926256 64.240941 
L 159.056169 67.798588 
L 159.315997 67.798588 
L 159.445911 64.240941 
L 159.575825 71.356235 
L 159.705738 71.356235 
L 159.835652 67.798588 
L 159.965566 71.356235 
L 160.225393 64.240941 
L 160.355307 64.240941 
L 160.485221 67.798588 
L 160.615135 64.240941 
L 160.745049 67.798588 
L 160.874962 67.798588 
L 161.13479 60.683294 
L 161.264704 64.240941 
L 161.524531 64.240941 
L 161.654445 67.798588 
L 161.784359 64.240941 
L 161.914273 67.798588 
L 162.044186 64.240941 
L 162.563842 64.240941 
L 162.693755 71.356235 
L 162.823669 67.798588 
L 162.953583 71.356235 
L 163.21341 64.240941 
L 163.473238 71.356235 
L 163.733066 71.356235 
L 163.862979 67.798588 
L 163.992893 67.798588 
L 164.122807 71.356235 
L 164.252721 67.798588 
L 164.382635 71.356235 
L 165.162117 71.356235 
L 165.292031 67.798588 
L 165.421945 71.356235 
L 165.811686 71.356235 
L 165.9416 74.913882 
L 166.591169 74.913882 
L 166.721083 78.471529 
L 166.850996 74.913882 
L 166.98091 78.471529 
L 167.240738 78.471529 
L 167.370652 82.029176 
L 167.500565 82.029176 
L 167.630479 78.471529 
L 168.409962 99.817412 
L 168.539876 99.817412 
L 168.669789 110.490353 
L 168.799703 110.490353 
L 169.7091 163.855059 
L 171.008237 267.026824 
L 171.138151 267.026824 
L 171.527893 284.815059 
L 171.657806 288.372706 
L 171.78772 288.372706 
L 171.917634 291.930353 
L 172.047548 291.930353 
L 172.177462 295.488 
L 172.307375 291.930353 
L 172.567203 291.930353 
L 172.697117 295.488 
L 172.82703 291.930353 
L 172.956944 295.488 
L 173.086858 291.930353 
L 173.216772 295.488 
L 173.476599 295.488 
L 173.606513 291.930353 
L 174.126168 291.930353 
L 174.256082 288.372706 
L 174.51591 288.372706 
L 174.645823 284.815059 
L 174.775737 284.815059 
L 174.905651 288.372706 
L 175.035565 284.815059 
L 175.165479 288.372706 
L 175.425306 281.257412 
L 175.55522 284.815059 
L 175.685134 284.815059 
L 175.815047 281.257412 
L 176.724444 281.257412 
L 176.854358 277.699765 
L 176.984272 277.699765 
L 177.114185 274.142118 
L 177.244099 274.142118 
L 177.374013 270.584471 
L 177.503927 277.699765 
L 177.63384 274.142118 
L 178.153496 274.142118 
L 178.283409 270.584471 
L 178.413323 270.584471 
L 178.543237 267.026824 
L 178.803064 267.026824 
L 178.932978 263.469176 
L 179.062892 267.026824 
L 179.192806 263.469176 
L 179.582547 263.469176 
L 179.712461 259.911529 
L 179.842375 263.469176 
L 179.972289 259.911529 
L 180.232116 259.911529 
L 180.36203 256.353882 
L 180.491944 256.353882 
L 180.621857 259.911529 
L 180.751771 256.353882 
L 181.011599 256.353882 
L 181.141513 252.796235 
L 181.920995 252.796235 
L 182.050909 249.238588 
L 182.570564 249.238588 
L 182.700478 245.680941 
L 182.830392 249.238588 
L 182.960306 245.680941 
L 183.090219 245.680941 
L 183.350047 238.565647 
L 183.479961 245.680941 
L 183.609874 238.565647 
L 183.869702 238.565647 
L 183.999616 242.123294 
L 184.259443 235.008 
L 184.649185 235.008 
L 184.779099 231.450353 
L 184.909012 231.450353 
L 185.038926 235.008 
L 185.16884 231.450353 
L 185.688495 231.450353 
L 185.818409 224.335059 
L 185.948323 231.450353 
L 186.078236 224.335059 
L 186.20815 231.450353 
L 186.467978 231.450353 
L 186.597892 224.335059 
L 186.727805 227.892706 
L 186.857719 224.335059 
L 187.117547 224.335059 
L 187.24746 227.892706 
L 187.507288 220.777412 
L 187.637202 220.777412 
L 187.767116 224.335059 
L 188.026943 217.219765 
L 188.156857 220.777412 
L 188.286771 220.777412 
L 188.416684 217.219765 
L 188.546598 220.777412 
L 188.806426 220.777412 
L 188.93634 217.219765 
L 189.066253 217.219765 
L 189.196167 213.662118 
L 189.326081 213.662118 
L 189.455995 210.104471 
L 189.715822 217.219765 
L 189.845736 217.219765 
L 189.97565 213.662118 
L 190.235477 213.662118 
L 190.365391 210.104471 
L 190.495305 213.662118 
L 190.625219 210.104471 
L 190.755133 210.104471 
L 190.885046 206.546824 
L 191.404702 206.546824 
L 191.534615 202.989176 
L 191.924357 202.989176 
L 192.05427 206.546824 
L 192.184184 202.989176 
L 192.314098 202.989176 
L 192.444012 206.546824 
L 192.703839 199.431529 
L 192.833753 199.431529 
L 192.963667 202.989176 
L 193.093581 199.431529 
L 193.223494 199.431529 
L 193.353408 202.989176 
L 193.483322 199.431529 
L 193.613236 199.431529 
L 193.74315 202.989176 
L 193.873063 195.873882 
L 194.002977 195.873882 
L 194.132891 199.431529 
L 194.392719 192.316235 
L 194.652546 192.316235 
L 194.78246 195.873882 
L 194.912374 192.316235 
L 195.432029 192.316235 
L 195.561943 188.758588 
L 196.471339 188.758588 
L 196.601253 192.316235 
L 196.731167 185.200941 
L 197.120908 185.200941 
L 197.250822 181.643294 
L 197.380736 181.643294 
L 197.510649 185.200941 
L 197.640563 185.200941 
L 197.770477 181.643294 
L 198.030304 181.643294 
L 198.160218 178.085647 
L 198.290132 181.643294 
L 198.939701 181.643294 
L 199.199529 174.528 
L 199.459356 181.643294 
L 199.58927 178.085647 
L 199.719184 181.643294 
L 199.849097 178.085647 
L 199.979011 181.643294 
L 200.238839 174.528 
L 200.368753 181.643294 
L 200.498666 170.970353 
L 200.62858 174.528 
L 200.888408 174.528 
L 201.018322 170.970353 
L 201.278149 170.970353 
L 201.408063 174.528 
L 201.537977 170.970353 
L 201.797804 170.970353 
L 201.927718 167.412706 
L 202.057632 170.970353 
L 202.187546 167.412706 
L 202.317459 167.412706 
L 202.447373 170.970353 
L 202.577287 167.412706 
L 203.096942 167.412706 
L 203.226856 163.855059 
L 203.35677 167.412706 
L 203.616597 160.297412 
L 203.746511 160.297412 
L 203.876425 163.855059 
L 204.006339 160.297412 
L 204.136252 163.855059 
L 204.266166 163.855059 
L 204.39608 160.297412 
L 204.655907 160.297412 
L 204.785821 163.855059 
L 204.915735 160.297412 
L 205.045649 160.297412 
L 205.175563 163.855059 
L 205.305476 163.855059 
L 205.43539 160.297412 
L 205.825132 160.297412 
L 205.955045 156.739765 
L 206.4747 156.739765 
L 206.604614 160.297412 
L 206.734528 160.297412 
L 206.864442 156.739765 
L 207.254183 156.739765 
L 207.384097 153.182118 
L 207.514011 156.739765 
L 207.643924 156.739765 
L 207.773838 153.182118 
L 207.903752 156.739765 
L 208.033666 153.182118 
L 208.293493 153.182118 
L 208.423407 149.624471 
L 208.553321 153.182118 
L 208.813149 153.182118 
L 208.943062 156.739765 
L 209.072976 149.624471 
L 209.20289 153.182118 
L 209.332804 149.624471 
L 209.462717 153.182118 
L 209.722545 153.182118 
L 209.852459 149.624471 
L 210.502028 149.624471 
L 210.631942 153.182118 
L 210.891769 146.066824 
L 211.151597 146.066824 
L 211.28151 142.509176 
L 211.411424 146.066824 
L 211.541338 142.509176 
L 211.671252 146.066824 
L 211.801166 142.509176 
L 212.060993 142.509176 
L 212.190907 146.066824 
L 212.320821 142.509176 
L 212.450734 142.509176 
L 212.580648 146.066824 
L 212.840476 138.951529 
L 212.97039 142.509176 
L 213.360131 142.509176 
L 213.490045 138.951529 
L 213.619959 138.951529 
L 213.749872 142.509176 
L 213.879786 138.951529 
L 214.0097 138.951529 
L 214.139614 135.393882 
L 214.269527 138.951529 
L 214.399441 138.951529 
L 214.529355 135.393882 
L 214.659269 138.951529 
L 214.789183 135.393882 
L 214.919096 138.951529 
L 215.04901 135.393882 
L 215.308838 135.393882 
L 215.438752 138.951529 
L 215.568665 135.393882 
L 215.698579 138.951529 
L 215.828493 135.393882 
L 215.958407 135.393882 
L 216.08832 138.951529 
L 216.218234 138.951529 
L 216.478062 131.836235 
L 216.607976 135.393882 
L 216.737889 135.393882 
L 216.867803 131.836235 
L 217.127631 131.836235 
L 217.257544 128.278588 
L 217.387458 131.836235 
L 217.647286 131.836235 
L 217.7772 128.278588 
L 217.907113 131.836235 
L 218.037027 131.836235 
L 218.166941 128.278588 
L 218.296855 131.836235 
L 218.426769 131.836235 
L 218.556682 128.278588 
L 218.81651 128.278588 
L 218.946424 131.836235 
L 219.206251 131.836235 
L 219.336165 128.278588 
L 219.466079 128.278588 
L 219.595993 124.720941 
L 219.725906 128.278588 
L 219.85582 128.278588 
L 219.985734 124.720941 
L 220.115648 128.278588 
L 220.375475 128.278588 
L 220.505389 124.720941 
L 220.635303 131.836235 
L 220.765217 128.278588 
L 220.89513 128.278588 
L 221.025044 124.720941 
L 221.154958 124.720941 
L 221.284872 128.278588 
L 221.414786 124.720941 
L 221.544699 128.278588 
L 221.804527 128.278588 
L 221.934441 124.720941 
L 222.58401 124.720941 
L 222.713923 121.163294 
L 222.843837 121.163294 
L 222.973751 124.720941 
L 223.103665 124.720941 
L 223.233579 121.163294 
L 223.753234 121.163294 
L 223.883147 117.605647 
L 224.013061 121.163294 
L 224.532716 121.163294 
L 224.66263 124.720941 
L 224.792544 121.163294 
L 225.572027 121.163294 
L 225.70194 117.605647 
L 225.831854 121.163294 
L 225.961768 121.163294 
L 226.091682 117.605647 
L 226.351509 117.605647 
L 226.481423 121.163294 
L 226.741251 114.048 
L 226.871164 117.605647 
L 227.001078 114.048 
L 227.130992 117.605647 
L 227.39082 117.605647 
L 227.520733 121.163294 
L 227.650647 121.163294 
L 227.780561 117.605647 
L 228.040389 117.605647 
L 228.170302 114.048 
L 228.43013 114.048 
L 228.560044 117.605647 
L 228.689957 117.605647 
L 228.819871 114.048 
L 228.949785 121.163294 
L 229.079699 114.048 
L 229.46944 114.048 
L 229.599354 110.490353 
L 229.729268 114.048 
L 229.859181 110.490353 
L 230.378837 110.490353 
L 230.50875 114.048 
L 230.638664 110.490353 
L 230.768578 114.048 
L 230.898492 110.490353 
L 231.158319 110.490353 
L 231.288233 106.932706 
L 231.418147 110.490353 
L 231.807888 110.490353 
L 231.937802 106.932706 
L 232.067716 110.490353 
L 232.587371 110.490353 
L 232.717285 106.932706 
L 232.847199 110.490353 
L 233.107026 110.490353 
L 233.366854 103.375059 
L 233.496767 110.490353 
L 233.756595 110.490353 
L 233.886509 106.932706 
L 234.146336 106.932706 
L 234.27625 103.375059 
L 234.536078 103.375059 
L 234.665991 106.932706 
L 235.445474 106.932706 
L 235.575388 110.490353 
L 235.705302 106.932706 
L 235.835216 106.932706 
L 235.965129 110.490353 
L 236.095043 106.932706 
L 236.224957 106.932706 
L 236.354871 103.375059 
L 236.614698 103.375059 
L 236.744612 106.932706 
L 236.874526 103.375059 
L 237.00444 106.932706 
L 237.134353 106.932706 
L 237.264267 99.817412 
L 237.394181 103.375059 
L 237.524095 103.375059 
L 237.654009 99.817412 
L 237.783922 103.375059 
L 237.913836 99.817412 
L 238.04375 103.375059 
L 239.732629 103.375059 
L 239.862543 99.817412 
L 240.252284 99.817412 
L 240.382198 103.375059 
L 240.512112 99.817412 
L 240.771939 99.817412 
L 240.901853 96.259765 
L 241.031767 99.817412 
L 241.161681 99.817412 
L 241.291594 96.259765 
L 241.421508 96.259765 
L 241.551422 99.817412 
L 242.071077 99.817412 
L 242.200991 96.259765 
L 242.330905 99.817412 
L 242.460819 99.817412 
L 242.590732 96.259765 
L 242.720646 99.817412 
L 242.85056 99.817412 
L 242.980474 96.259765 
L 243.110387 96.259765 
L 243.240301 92.702118 
L 243.500129 99.817412 
L 243.759956 92.702118 
L 243.88987 99.817412 
L 244.019784 96.259765 
L 244.279611 96.259765 
L 244.409525 92.702118 
L 244.539439 96.259765 
L 244.669353 96.259765 
L 244.799267 99.817412 
L 244.92918 96.259765 
L 245.708663 96.259765 
L 245.838577 99.817412 
L 246.098404 92.702118 
L 246.228318 96.259765 
L 246.488146 96.259765 
L 246.61806 92.702118 
L 246.747973 96.259765 
L 246.877887 96.259765 
L 247.007801 92.702118 
L 247.397542 92.702118 
L 247.527456 96.259765 
L 247.65737 92.702118 
L 247.917197 92.702118 
L 248.047111 96.259765 
L 248.177025 89.144471 
L 248.306939 92.702118 
L 249.346249 92.702118 
L 249.476163 96.259765 
L 249.606077 92.702118 
L 249.865904 92.702118 
L 249.995818 89.144471 
L 250.125732 92.702118 
L 250.385559 92.702118 
L 250.515473 89.144471 
L 250.645387 92.702118 
L 250.775301 89.144471 
L 251.165042 89.144471 
L 251.294956 92.702118 
L 251.944525 92.702118 
L 252.074439 89.144471 
L 252.204352 92.702118 
L 252.334266 92.702118 
L 252.46418 89.144471 
L 252.594094 92.702118 
L 252.724007 89.144471 
L 252.853921 89.144471 
L 252.983835 92.702118 
L 253.113749 89.144471 
L 253.243663 92.702118 
L 253.373576 89.144471 
L 253.633404 89.144471 
L 253.763318 85.586824 
L 253.893231 89.144471 
L 254.153059 89.144471 
L 254.282973 85.586824 
L 254.412887 89.144471 
L 254.932542 89.144471 
L 255.062456 85.586824 
L 255.192369 89.144471 
L 255.971852 89.144471 
L 256.101766 92.702118 
L 256.23168 89.144471 
L 256.621421 89.144471 
L 256.751335 85.586824 
L 256.881248 89.144471 
L 257.141076 89.144471 
L 257.27099 85.586824 
L 257.400904 89.144471 
L 257.530817 82.029176 
L 257.660731 82.029176 
L 257.920559 89.144471 
L 258.3103 89.144471 
L 258.440214 85.586824 
L 258.570128 89.144471 
L 258.829955 89.144471 
L 258.959869 85.586824 
L 259.089783 89.144471 
L 259.34961 89.144471 
L 259.479524 85.586824 
L 259.609438 89.144471 
L 259.869266 82.029176 
L 259.999179 85.586824 
L 260.388921 85.586824 
L 260.518834 89.144471 
L 260.648748 85.586824 
L 260.778662 85.586824 
L 260.908576 89.144471 
L 261.03849 89.144471 
L 261.168403 85.586824 
L 261.298317 85.586824 
L 261.428231 82.029176 
L 261.558145 82.029176 
L 261.688058 85.586824 
L 261.817972 85.586824 
L 261.947886 82.029176 
L 262.207714 89.144471 
L 262.337627 85.586824 
L 262.467541 85.586824 
L 262.597455 89.144471 
L 262.857283 89.144471 
L 262.987196 85.586824 
L 263.506851 85.586824 
L 263.636765 82.029176 
L 263.766679 82.029176 
L 263.896593 85.586824 
L 264.026507 85.586824 
L 264.15642 82.029176 
L 264.286334 82.029176 
L 264.416248 85.586824 
L 264.546162 82.029176 
L 264.935903 82.029176 
L 265.065817 85.586824 
L 265.195731 82.029176 
L 265.325644 82.029176 
L 265.455558 78.471529 
L 265.585472 85.586824 
L 265.715386 82.029176 
L 265.8453 85.586824 
L 265.975213 82.029176 
L 266.105127 85.586824 
L 266.235041 82.029176 
L 266.364955 82.029176 
L 266.494868 85.586824 
L 266.624782 85.586824 
L 266.754696 82.029176 
L 267.794006 82.029176 
L 267.92392 78.471529 
L 268.053834 78.471529 
L 268.183748 82.029176 
L 268.313661 82.029176 
L 268.443575 78.471529 
L 268.573489 82.029176 
L 268.703403 78.471529 
L 268.833317 82.029176 
L 269.482886 82.029176 
L 269.612799 85.586824 
L 269.872627 85.586824 
L 270.002541 82.029176 
L 270.262368 82.029176 
L 270.392282 78.471529 
L 270.522196 82.029176 
L 271.821334 82.029176 
L 271.951247 78.471529 
L 272.081161 82.029176 
L 272.211075 74.913882 
L 272.340989 82.029176 
L 272.470903 78.471529 
L 272.600816 82.029176 
L 272.860644 82.029176 
L 272.990558 78.471529 
L 273.120471 82.029176 
L 273.250385 78.471529 
L 273.380299 82.029176 
L 273.510213 78.471529 
L 273.640127 78.471529 
L 273.77004 82.029176 
L 273.899954 78.471529 
L 274.159782 78.471529 
L 274.289696 82.029176 
L 274.419609 78.471529 
L 274.679437 78.471529 
L 274.809351 82.029176 
L 275.45892 82.029176 
L 275.588833 85.586824 
L 275.718747 78.471529 
L 275.848661 78.471529 
L 275.978575 82.029176 
L 276.108488 78.471529 
L 276.238402 82.029176 
L 276.49823 74.913882 
L 276.628144 78.471529 
L 277.017885 78.471529 
L 277.147799 74.913882 
L 277.277713 74.913882 
L 277.407626 82.029176 
L 277.53754 78.471529 
L 277.797368 78.471529 
L 277.927281 74.913882 
L 278.057195 78.471529 
L 278.317023 78.471529 
L 278.446937 74.913882 
L 278.57685 74.913882 
L 278.706764 82.029176 
L 278.836678 78.471529 
L 279.356333 78.471529 
L 279.486247 82.029176 
L 279.616161 78.471529 
L 279.746074 78.471529 
L 279.875988 74.913882 
L 280.005902 78.471529 
L 280.135816 74.913882 
L 280.26573 74.913882 
L 280.525557 82.029176 
L 280.655471 74.913882 
L 280.785385 78.471529 
L 281.045212 78.471529 
L 281.175126 82.029176 
L 281.30504 74.913882 
L 281.694781 74.913882 
L 281.824695 82.029176 
L 281.954609 78.471529 
L 282.34435 78.471529 
L 282.474264 74.913882 
L 282.734091 74.913882 
L 282.864005 78.471529 
L 282.993919 74.913882 
L 283.123833 78.471529 
L 283.253747 74.913882 
L 284.422971 74.913882 
L 284.552884 71.356235 
L 284.682798 74.913882 
L 284.812712 74.913882 
L 284.942626 78.471529 
L 285.07254 74.913882 
L 285.332367 74.913882 
L 285.462281 78.471529 
L 285.592195 78.471529 
L 285.722108 74.913882 
L 285.852022 78.471529 
L 285.981936 71.356235 
L 286.11185 74.913882 
L 286.241764 71.356235 
L 287.410988 71.356235 
L 287.540901 74.913882 
L 287.670815 71.356235 
L 287.800729 71.356235 
L 287.930643 78.471529 
L 288.060557 78.471529 
L 288.19047 71.356235 
L 288.450298 78.471529 
L 288.710126 71.356235 
L 288.840039 74.913882 
L 288.969953 71.356235 
L 289.489608 71.356235 
L 289.619522 74.913882 
L 289.749436 71.356235 
L 289.87935 74.913882 
L 290.009263 71.356235 
L 290.269091 71.356235 
L 290.399005 74.913882 
L 290.788746 74.913882 
L 290.91866 71.356235 
L 291.048574 74.913882 
L 291.178487 71.356235 
L 291.308401 74.913882 
L 291.438315 71.356235 
L 291.568229 71.356235 
L 291.698143 78.471529 
L 291.828056 71.356235 
L 291.95797 74.913882 
L 292.087884 74.913882 
L 292.217798 78.471529 
L 292.347711 78.471529 
L 292.607539 71.356235 
L 292.99728 71.356235 
L 293.127194 67.798588 
L 293.387022 74.913882 
L 293.516936 71.356235 
L 293.646849 74.913882 
L 293.776763 71.356235 
L 293.906677 71.356235 
L 294.036591 74.913882 
L 294.166504 67.798588 
L 294.296418 67.798588 
L 294.556246 74.913882 
L 294.68616 71.356235 
L 295.075901 71.356235 
L 295.205815 74.913882 
L 295.465642 74.913882 
L 295.595556 71.356235 
L 295.72547 71.356235 
L 295.855384 74.913882 
L 295.985297 71.356235 
L 296.245125 71.356235 
L 296.375039 74.913882 
L 296.504953 71.356235 
L 296.634866 71.356235 
L 296.76478 67.798588 
L 297.024608 67.798588 
L 297.154521 71.356235 
L 297.544263 71.356235 
L 297.674177 74.913882 
L 297.80409 74.913882 
L 297.934004 71.356235 
L 298.193832 71.356235 
L 298.323745 74.913882 
L 298.453659 71.356235 
L 298.583573 71.356235 
L 298.713487 67.798588 
L 298.843401 71.356235 
L 299.49297 71.356235 
L 299.622883 67.798588 
L 299.752797 67.798588 
L 299.882711 64.240941 
L 300.012625 67.798588 
L 300.272452 67.798588 
L 300.402366 71.356235 
L 300.53228 71.356235 
L 300.662194 67.798588 
L 300.792107 71.356235 
L 300.922021 67.798588 
L 301.051935 71.356235 
L 301.311763 71.356235 
L 301.441676 67.798588 
L 301.57159 71.356235 
L 302.091245 71.356235 
L 302.221159 67.798588 
L 302.351073 71.356235 
L 302.480987 71.356235 
L 302.6109 67.798588 
L 302.740814 71.356235 
L 302.870728 67.798588 
L 303.000642 71.356235 
L 303.130555 67.798588 
L 303.650211 67.798588 
L 303.780124 64.240941 
L 304.039952 71.356235 
L 304.169866 67.798588 
L 304.29978 71.356235 
L 304.429693 64.240941 
L 304.559607 71.356235 
L 304.689521 67.798588 
L 304.819435 71.356235 
L 305.469004 71.356235 
L 305.598917 67.798588 
L 305.728831 71.356235 
L 305.988659 71.356235 
L 306.118573 64.240941 
L 306.248486 67.798588 
L 306.3784 67.798588 
L 306.508314 71.356235 
L 306.638228 67.798588 
L 306.768141 71.356235 
L 306.898055 71.356235 
L 307.027969 67.798588 
L 307.157883 71.356235 
L 307.287797 64.240941 
L 307.41771 64.240941 
L 307.547624 67.798588 
L 307.677538 67.798588 
L 307.807452 64.240941 
L 307.937365 67.798588 
L 308.457021 67.798588 
L 308.586934 64.240941 
L 308.716848 71.356235 
L 308.976676 71.356235 
L 309.10659 67.798588 
L 309.366417 67.798588 
L 309.496331 64.240941 
L 309.626245 64.240941 
L 309.756158 67.798588 
L 310.015986 67.798588 
L 310.1459 64.240941 
L 310.275814 67.798588 
L 310.535641 67.798588 
L 310.665555 64.240941 
L 310.795469 67.798588 
L 310.925383 64.240941 
L 311.055296 67.798588 
L 311.18521 67.798588 
L 311.315124 64.240941 
L 311.574951 71.356235 
L 311.704865 67.798588 
L 311.964693 67.798588 
L 312.094607 71.356235 
L 312.22452 67.798588 
L 312.354434 67.798588 
L 312.484348 64.240941 
L 312.614262 67.798588 
L 312.744175 67.798588 
L 312.874089 64.240941 
L 313.004003 67.798588 
L 313.133917 67.798588 
L 313.263831 64.240941 
L 313.393744 67.798588 
L 313.523658 67.798588 
L 313.653572 64.240941 
L 313.783486 67.798588 
L 314.043313 67.798588 
L 314.173227 64.240941 
L 314.433055 64.240941 
L 314.562968 60.683294 
L 314.692882 64.240941 
L 314.95271 64.240941 
L 315.082624 67.798588 
L 315.212537 60.683294 
L 315.342451 64.240941 
L 315.472365 60.683294 
L 315.602279 64.240941 
L 315.732193 64.240941 
L 315.862106 67.798588 
L 315.99202 64.240941 
L 316.121934 67.798588 
L 316.381761 67.798588 
L 316.511675 64.240941 
L 316.641589 67.798588 
L 316.771503 67.798588 
L 316.901417 64.240941 
L 317.161244 64.240941 
L 317.291158 67.798588 
L 317.421072 67.798588 
L 317.550985 64.240941 
L 317.940727 64.240941 
L 318.070641 67.798588 
L 318.200554 64.240941 
L 319.369778 64.240941 
L 319.499692 60.683294 
L 319.75952 67.798588 
L 319.889434 67.798588 
L 320.019347 64.240941 
L 320.149261 67.798588 
L 320.279175 64.240941 
L 320.668916 64.240941 
L 320.79883 60.683294 
L 320.928744 64.240941 
L 321.058658 64.240941 
L 321.188571 60.683294 
L 321.318485 64.240941 
L 321.578313 64.240941 
L 321.708227 60.683294 
L 321.83814 64.240941 
L 321.968054 64.240941 
L 322.097968 60.683294 
L 322.227882 64.240941 
L 322.487709 64.240941 
L 322.617623 60.683294 
L 322.877451 60.683294 
L 323.007364 64.240941 
L 323.137278 60.683294 
L 323.397106 60.683294 
L 323.52702 64.240941 
L 323.656933 60.683294 
L 323.786847 64.240941 
L 323.916761 60.683294 
L 324.046675 60.683294 
L 324.176588 67.798588 
L 324.306502 64.240941 
L 324.436416 64.240941 
L 324.56633 60.683294 
L 324.696244 64.240941 
L 324.826157 64.240941 
L 324.956071 67.798588 
L 325.085985 60.683294 
L 325.215899 64.240941 
L 325.345813 64.240941 
L 325.475726 67.798588 
L 325.60564 60.683294 
L 325.735554 64.240941 
L 326.125295 64.240941 
L 326.255209 60.683294 
L 326.385123 60.683294 
L 326.515037 64.240941 
L 326.64495 60.683294 
L 326.774864 64.240941 
L 326.904778 60.683294 
L 327.034692 60.683294 
L 327.164605 64.240941 
L 327.294519 64.240941 
L 327.424433 60.683294 
L 327.814174 60.683294 
L 327.944088 64.240941 
L 328.074002 60.683294 
L 328.203916 60.683294 
L 328.33383 64.240941 
L 328.463743 64.240941 
L 328.593657 60.683294 
L 328.723571 64.240941 
L 328.853485 64.240941 
L 328.983398 60.683294 
L 329.113312 60.683294 
L 329.243226 64.240941 
L 329.37314 60.683294 
L 329.503054 60.683294 
L 329.632967 64.240941 
L 329.762881 64.240941 
L 329.892795 60.683294 
L 330.672278 60.683294 
L 330.802191 57.125647 
L 330.932105 64.240941 
L 331.062019 64.240941 
L 331.191933 60.683294 
L 331.321847 60.683294 
L 331.45176 64.240941 
L 332.491071 64.240941 
L 332.620984 60.683294 
L 332.750898 64.240941 
L 332.880812 64.240941 
L 333.010726 60.683294 
L 333.270553 60.683294 
L 333.400467 64.240941 
L 333.530381 60.683294 
L 334.050036 60.683294 
L 334.17995 64.240941 
L 334.309864 60.683294 
L 334.439777 60.683294 
L 334.569691 64.240941 
L 334.699605 60.683294 
L 334.829519 64.240941 
L 334.959433 57.125647 
L 335.089346 57.125647 
L 335.21926 60.683294 
L 335.479088 60.683294 
L 335.609001 64.240941 
L 335.738915 60.683294 
L 336.25857 60.683294 
L 336.388484 64.240941 
L 336.518398 60.683294 
L 336.648312 64.240941 
L 336.908139 57.125647 
L 337.038053 60.683294 
L 337.427794 60.683294 
L 337.557708 64.240941 
L 337.687622 60.683294 
L 337.817536 60.683294 
L 337.94745 64.240941 
L 338.077363 60.683294 
L 339.116674 60.683294 
L 339.246587 64.240941 
L 339.376501 60.683294 
L 340.155984 60.683294 
L 340.285898 57.125647 
L 340.415811 60.683294 
L 341.06538 60.683294 
L 341.195294 57.125647 
L 341.325208 57.125647 
L 341.585035 64.240941 
L 341.714949 64.240941 
L 341.844863 60.683294 
L 341.974777 60.683294 
L 342.104691 57.125647 
L 342.234604 60.683294 
L 342.884173 60.683294 
L 343.014087 57.125647 
L 343.273915 64.240941 
L 343.403828 60.683294 
L 343.533742 60.683294 
L 343.663656 57.125647 
L 343.79357 60.683294 
L 343.923484 60.683294 
L 344.053397 64.240941 
L 344.183311 60.683294 
L 344.313225 64.240941 
L 344.443139 64.240941 
L 344.573052 60.683294 
L 344.702966 60.683294 
L 344.83288 64.240941 
L 344.962794 60.683294 
L 345.092708 60.683294 
L 345.222621 64.240941 
L 345.352535 57.125647 
L 345.482449 60.683294 
L 345.612363 57.125647 
L 345.742277 60.683294 
L 346.132018 60.683294 
L 346.261932 57.125647 
L 346.391845 60.683294 
L 347.690983 60.683294 
L 347.820897 64.240941 
L 348.080725 57.125647 
L 348.210638 60.683294 
L 348.730294 60.683294 
L 348.860207 64.240941 
L 348.990121 60.683294 
L 349.63969 60.683294 
L 349.769604 57.125647 
L 350.029431 57.125647 
L 350.159345 60.683294 
L 350.808914 60.683294 
L 350.938828 57.125647 
L 351.068742 60.683294 
L 351.848224 60.683294 
L 351.978138 64.240941 
L 352.108052 60.683294 
L 352.36788 60.683294 
L 352.497793 64.240941 
L 352.627707 60.683294 
L 352.757621 60.683294 
L 352.887535 57.125647 
L 353.147362 64.240941 
L 353.277276 57.125647 
L 353.40719 57.125647 
L 353.537104 60.683294 
L 353.796931 60.683294 
L 353.926845 64.240941 
L 354.056759 60.683294 
L 354.706328 60.683294 
L 354.836241 64.240941 
L 354.966155 60.683294 
L 356.784948 60.683294 
L 356.914862 64.240941 
L 357.044776 64.240941 
L 357.17469 60.683294 
L 357.434517 60.683294 
L 357.564431 64.240941 
L 357.694345 60.683294 
L 358.603741 60.683294 
L 358.733655 64.240941 
L 358.863569 60.683294 
L 359.123396 60.683294 
L 359.25331 57.125647 
L 359.383224 60.683294 
L 360.032793 60.683294 
L 360.162707 57.125647 
L 360.29262 57.125647 
L 360.422534 60.683294 
L 360.552448 60.683294 
L 360.682362 57.125647 
L 360.942189 64.240941 
L 361.072103 60.683294 
L 361.721672 60.683294 
L 361.851586 64.240941 
L 361.9815 64.240941 
L 362.111413 60.683294 
L 362.241327 64.240941 
L 362.371241 60.683294 
L 363.670379 60.683294 
L 363.800292 57.125647 
L 363.930206 60.683294 
L 364.319948 60.683294 
L 364.449861 64.240941 
L 364.579775 60.683294 
L 365.359258 60.683294 
L 365.489172 57.125647 
L 365.619085 64.240941 
L 365.748999 64.240941 
L 365.878913 60.683294 
L 366.008827 64.240941 
L 366.268654 57.125647 
L 366.398568 57.125647 
L 366.528482 60.683294 
L 366.658396 57.125647 
L 366.78831 57.125647 
L 366.918223 64.240941 
L 367.048137 60.683294 
L 367.697706 60.683294 
L 367.82762 64.240941 
L 367.957534 64.240941 
L 368.087447 60.683294 
L 368.217361 64.240941 
L 368.347275 60.683294 
L 368.477189 60.683294 
L 368.607102 64.240941 
L 368.737016 60.683294 
L 368.996844 60.683294 
L 369.126758 57.125647 
L 369.256671 60.683294 
L 369.776327 60.683294 
L 369.90624 57.125647 
L 370.036154 60.683294 
L 370.295982 60.683294 
L 370.425895 57.125647 
L 370.685723 64.240941 
L 370.945551 64.240941 
L 371.075464 60.683294 
L 371.205378 67.798588 
L 371.335292 67.798588 
L 371.465206 60.683294 
L 371.59512 67.798588 
L 371.725033 60.683294 
L 371.854947 71.356235 
L 371.984861 64.240941 
L 372.114775 67.798588 
L 372.374602 60.683294 
L 372.504516 64.240941 
L 373.154085 64.240941 
L 373.283999 60.683294 
L 373.413912 60.683294 
L 373.543826 64.240941 
L 373.803654 64.240941 
L 373.933568 67.798588 
L 374.063481 64.240941 
L 374.193395 64.240941 
L 374.323309 67.798588 
L 374.453223 64.240941 
L 374.583137 67.798588 
L 374.71305 67.798588 
L 374.842964 64.240941 
L 375.492533 64.240941 
L 375.622447 60.683294 
L 375.752361 64.240941 
L 376.012188 64.240941 
L 376.142102 60.683294 
L 376.401929 67.798588 
L 376.531843 64.240941 
L 376.661757 67.798588 
L 376.791671 64.240941 
L 376.921585 67.798588 
L 377.051498 64.240941 
L 377.181412 67.798588 
L 377.311326 60.683294 
L 377.44124 64.240941 
L 377.571154 64.240941 
L 377.830981 71.356235 
L 378.090809 64.240941 
L 378.220722 64.240941 
L 378.48055 71.356235 
L 378.740378 64.240941 
L 378.870291 67.798588 
L 379.130119 67.798588 
L 379.260033 64.240941 
L 379.389947 67.798588 
L 379.51986 67.798588 
L 379.649774 64.240941 
L 379.779688 67.798588 
L 380.039515 67.798588 
L 380.169429 71.356235 
L 380.299343 67.798588 
L 380.429257 71.356235 
L 381.598481 71.356235 
L 381.728395 74.913882 
L 382.377964 74.913882 
L 382.507877 78.471529 
L 382.637791 74.913882 
L 382.767705 74.913882 
L 382.897619 82.029176 
L 383.027532 78.471529 
L 383.157446 82.029176 
L 383.28736 82.029176 
L 383.417274 78.471529 
L 383.547188 82.029176 
L 383.677101 82.029176 
L 383.807015 85.586824 
L 383.936929 82.029176 
L 384.066843 85.586824 
L 384.196757 85.586824 
L 384.32667 89.144471 
L 384.456584 89.144471 
L 384.586498 92.702118 
L 384.716412 92.702118 
L 384.846325 96.259765 
L 385.106153 96.259765 
L 385.365981 103.375059 
L 385.495894 110.490353 
L 385.755722 110.490353 
L 386.015549 121.163294 
L 386.275377 128.278588 
L 386.665118 153.182118 
L 386.795032 153.182118 
L 387.444601 199.431529 
L 387.834342 224.335059 
L 388.09417 238.565647 
L 388.743739 274.142118 
L 388.873653 274.142118 
L 389.13348 284.815059 
L 389.263394 281.257412 
L 389.653135 291.930353 
L 390.822359 291.930353 
L 390.952273 295.488 
L 391.082187 291.930353 
L 391.212101 295.488 
L 391.342015 291.930353 
L 391.731756 291.930353 
L 391.86167 284.815059 
L 391.991584 288.372706 
L 392.121497 288.372706 
L 392.251411 284.815059 
L 392.381325 288.372706 
L 392.511239 288.372706 
L 392.641152 284.815059 
L 392.90098 284.815059 
L 393.030894 281.257412 
L 393.290721 281.257412 
L 393.420635 284.815059 
L 393.550549 277.699765 
L 393.94029 277.699765 
L 394.070204 281.257412 
L 394.200118 277.699765 
L 394.459945 277.699765 
L 394.589859 274.142118 
L 394.719773 274.142118 
L 394.849687 277.699765 
L 394.979601 274.142118 
L 395.629169 274.142118 
L 395.759083 270.584471 
L 395.888997 263.469176 
L 396.018911 263.469176 
L 396.148825 267.026824 
L 396.278738 263.469176 
L 396.408652 267.026824 
L 396.538566 263.469176 
L 396.928307 263.469176 
L 397.058221 259.911529 
L 397.188135 259.911529 
L 397.318049 267.026824 
L 397.447962 263.469176 
L 397.577876 263.469176 
L 397.837704 252.796235 
L 397.967618 256.353882 
L 398.097531 252.796235 
L 398.227445 256.353882 
L 398.357359 256.353882 
L 398.487273 249.238588 
L 398.487273 249.238588 
" clip-path="url(#p63261d69c5)" style="fill: none; stroke: #ff0000; stroke-width: 1.5; stroke-linecap: square"/>
   </g>
   <g id="patch_3">
    <path d="M 57.6 307.584 
L 57.6 41.472 
" style="fill: none; stroke: #000000; stroke-width: 0.8; stroke-linejoin: miter; stroke-linecap: square"/>
   </g>
   <g id="patch_4">
    <path d="M 414.72 307.584 
L 414.72 41.472 
" style="fill: none; stroke: #000000; stroke-width: 0.8; stroke-linejoin: miter; stroke-linecap: square"/>
   </g>
   <g id="patch_5">
    <path d="M 57.6 307.584 
L 414.72 307.584 
" style="fill: none; stroke: #000000; stroke-width: 0.8; stroke-linejoin: miter; stroke-linecap: square"/>
   </g>
   <g id="patch_6">
    <path d="M 57.6 41.472 
L 414.72 41.472 
" style="fill: none; stroke: #000000; stroke-width: 0.8; stroke-linejoin: miter; stroke-linecap: square"/>
   </g>
  </g>
  <g id="axes_2">
   <g id="matplotlib.axis_3">
    <g id="ytick_7">
     <g id="line2d_20">
      <path d="M 57.6 293.258323 
L 414.72 293.258323 
" clip-path="url(#p63261d69c5)" style="fill: none; stroke: #b0b0b0; stroke-width: 0.8; stroke-linecap: square"/>
     </g>
     <g id="line2d_21">
      <defs>
       <path id="mcb08748f92" d="M 0 0 
L 3.5 0 
" style="stroke: #000000; stroke-width: 0.8"/>
      </defs>
      <g>
       <use xlink:href="#mcb08748f92" x="414.72" y="293.258323" style="stroke: #000000; stroke-width: 0.8"/>
      </g>
     </g>
     <g id="text_15">
      <!-- 1.00 -->
      <g transform="translate(421.72 297.057541) scale(0.1 -0.1)">
       <use xlink:href="#DejaVuSans-31"/>
       <use xlink:href="#DejaVuSans-2e" x="63.623047"/>
       <use xlink:href="#DejaVuSans-30" x="95.410156"/>
       <use xlink:href="#DejaVuSans-30" x="159.033203"/>
      </g>
     </g>
    </g>
    <g id="ytick_8">
     <g id="line2d_22">
      <path d="M 57.6 258.419613 
L 414.72 258.419613 
" clip-path="url(#p63261d69c5)" style="fill: none; stroke: #b0b0b0; stroke-width: 0.8; stroke-linecap: square"/>
     </g>
     <g id="line2d_23">
      <g>
       <use xlink:href="#mcb08748f92" x="414.72" y="258.419613" style="stroke: #000000; stroke-width: 0.8"/>
      </g>
     </g>
     <g id="text_16">
      <!-- 1.25 -->
      <g transform="translate(421.72 262.218832) scale(0.1 -0.1)">
       <use xlink:href="#DejaVuSans-31"/>
       <use xlink:href="#DejaVuSans-2e" x="63.623047"/>
       <use xlink:href="#DejaVuSans-32" x="95.410156"/>
       <use xlink:href="#DejaVuSans-35" x="159.033203"/>
      </g>
     </g>
    </g>
    <g id="ytick_9">
     <g id="line2d_24">
      <path d="M 57.6 223.580903 
L 414.72 223.580903 
" clip-path="url(#p63261d69c5)" style="fill: none; stroke: #b0b0b0; stroke-width: 0.8; stroke-linecap: square"/>
     </g>
     <g id="line2d_25">
      <g>
       <use xlink:href="#mcb08748f92" x="414.72" y="223.580903" style="stroke: #000000; stroke-width: 0.8"/>
      </g>
     </g>
     <g id="text_17">
      <!-- 1.50 -->
      <g transform="translate(421.72 227.380122) scale(0.1 -0.1)">
       <use xlink:href="#DejaVuSans-31"/>
       <use xlink:href="#DejaVuSans-2e" x="63.623047"/>
       <use xlink:href="#DejaVuSans-35" x="95.410156"/>
       <use xlink:href="#DejaVuSans-30" x="159.033203"/>
      </g>
     </g>
    </g>
    <g id="ytick_10">
     <g id="line2d_26">
      <path d="M 57.6 188.742194 
L 414.72 188.742194 
" clip-path="url(#p63261d69c5)" style="fill: none; stroke: #b0b0b0; stroke-width: 0.8; stroke-linecap: square"/>
     </g>
     <g id="line2d_27">
      <g>
       <use xlink:href="#mcb08748f92" x="414.72" y="188.742194" style="stroke: #000000; stroke-width: 0.8"/>
      </g>
     </g>
     <g id="text_18">
      <!-- 1.75 -->
      <g transform="translate(421.72 192.541412) scale(0.1 -0.1)">
       <defs>
        <path id="DejaVuSans-37" d="M 525 4666 
L 3525 4666 
L 3525 4397 
L 1831 0 
L 1172 0 
L 2766 4134 
L 525 4134 
L 525 4666 
z
" transform="scale(0.015625)"/>
       </defs>
       <use xlink:href="#DejaVuSans-31"/>
       <use xlink:href="#DejaVuSans-2e" x="63.623047"/>
       <use xlink:href="#DejaVuSans-37" x="95.410156"/>
       <use xlink:href="#DejaVuSans-35" x="159.033203"/>
      </g>
     </g>
    </g>
    <g id="ytick_11">
     <g id="line2d_28">
      <path d="M 57.6 153.903484 
L 414.72 153.903484 
" clip-path="url(#p63261d69c5)" style="fill: none; stroke: #b0b0b0; stroke-width: 0.8; stroke-linecap: square"/>
     </g>
     <g id="line2d_29">
      <g>
       <use xlink:href="#mcb08748f92" x="414.72" y="153.903484" style="stroke: #000000; stroke-width: 0.8"/>
      </g>
     </g>
     <g id="text_19">
      <!-- 2.00 -->
      <g transform="translate(421.72 157.702703) scale(0.1 -0.1)">
       <use xlink:href="#DejaVuSans-32"/>
       <use xlink:href="#DejaVuSans-2e" x="63.623047"/>
       <use xlink:href="#DejaVuSans-30" x="95.410156"/>
       <use xlink:href="#DejaVuSans-30" x="159.033203"/>
      </g>
     </g>
    </g>
    <g id="ytick_12">
     <g id="line2d_30">
      <path d="M 57.6 119.064774 
L 414.72 119.064774 
" clip-path="url(#p63261d69c5)" style="fill: none; stroke: #b0b0b0; stroke-width: 0.8; stroke-linecap: square"/>
     </g>
     <g id="line2d_31">
      <g>
       <use xlink:href="#mcb08748f92" x="414.72" y="119.064774" style="stroke: #000000; stroke-width: 0.8"/>
      </g>
     </g>
     <g id="text_20">
      <!-- 2.25 -->
      <g transform="translate(421.72 122.863993) scale(0.1 -0.1)">
       <use xlink:href="#DejaVuSans-32"/>
       <use xlink:href="#DejaVuSans-2e" x="63.623047"/>
       <use xlink:href="#DejaVuSans-32" x="95.410156"/>
       <use xlink:href="#DejaVuSans-35" x="159.033203"/>
      </g>
     </g>
    </g>
    <g id="ytick_13">
     <g id="line2d_32">
      <path d="M 57.6 84.226065 
L 414.72 84.226065 
" clip-path="url(#p63261d69c5)" style="fill: none; stroke: #b0b0b0; stroke-width: 0.8; stroke-linecap: square"/>
     </g>
     <g id="line2d_33">
      <g>
       <use xlink:href="#mcb08748f92" x="414.72" y="84.226065" style="stroke: #000000; stroke-width: 0.8"/>
      </g>
     </g>
     <g id="text_21">
      <!-- 2.50 -->
      <g transform="translate(421.72 88.025283) scale(0.1 -0.1)">
       <use xlink:href="#DejaVuSans-32"/>
       <use xlink:href="#DejaVuSans-2e" x="63.623047"/>
       <use xlink:href="#DejaVuSans-35" x="95.410156"/>
       <use xlink:href="#DejaVuSans-30" x="159.033203"/>
      </g>
     </g>
    </g>
    <g id="ytick_14">
     <g id="line2d_34">
      <path d="M 57.6 49.387355 
L 414.72 49.387355 
" clip-path="url(#p63261d69c5)" style="fill: none; stroke: #b0b0b0; stroke-width: 0.8; stroke-linecap: square"/>
     </g>
     <g id="line2d_35">
      <g>
       <use xlink:href="#mcb08748f92" x="414.72" y="49.387355" style="stroke: #000000; stroke-width: 0.8"/>
      </g>
     </g>
     <g id="text_22">
      <!-- 2.75 -->
      <g transform="translate(421.72 53.186574) scale(0.1 -0.1)">
       <use xlink:href="#DejaVuSans-32"/>
       <use xlink:href="#DejaVuSans-2e" x="63.623047"/>
       <use xlink:href="#DejaVuSans-37" x="95.410156"/>
       <use xlink:href="#DejaVuSans-35" x="159.033203"/>
      </g>
     </g>
    </g>
    <g id="text_23">
     <!-- $U_\mathrm{Spule} / \mathrm{V}$ -->
     <g transform="translate(455.285625 193.228) rotate(-90) scale(0.1 -0.1)">
      <defs>
       <path id="DejaVuSans-53" d="M 3425 4513 
L 3425 3897 
Q 3066 4069 2747 4153 
Q 2428 4238 2131 4238 
Q 1616 4238 1336 4038 
Q 1056 3838 1056 3469 
Q 1056 3159 1242 3001 
Q 1428 2844 1947 2747 
L 2328 2669 
Q 3034 2534 3370 2195 
Q 3706 1856 3706 1288 
Q 3706 609 3251 259 
Q 2797 -91 1919 -91 
Q 1588 -91 1214 -16 
Q 841 59 441 206 
L 441 856 
Q 825 641 1194 531 
Q 1563 422 1919 422 
Q 2459 422 2753 634 
Q 3047 847 3047 1241 
Q 3047 1584 2836 1778 
Q 2625 1972 2144 2069 
L 1759 2144 
Q 1053 2284 737 2584 
Q 422 2884 422 3419 
Q 422 4038 858 4394 
Q 1294 4750 2059 4750 
Q 2388 4750 2728 4690 
Q 3069 4631 3425 4513 
z
" transform="scale(0.015625)"/>
       <path id="DejaVuSans-70" d="M 1159 525 
L 1159 -1331 
L 581 -1331 
L 581 3500 
L 1159 3500 
L 1159 2969 
Q 1341 3281 1617 3432 
Q 1894 3584 2278 3584 
Q 2916 3584 3314 3078 
Q 3713 2572 3713 1747 
Q 3713 922 3314 415 
Q 2916 -91 2278 -91 
Q 1894 -91 1617 61 
Q 1341 213 1159 525 
z
M 3116 1747 
Q 3116 2381 2855 2742 
Q 2594 3103 2138 3103 
Q 1681 3103 1420 2742 
Q 1159 2381 1159 1747 
Q 1159 1113 1420 752 
Q 1681 391 2138 391 
Q 2594 391 2855 752 
Q 3116 1113 3116 1747 
z
" transform="scale(0.015625)"/>
       <path id="DejaVuSans-75" d="M 544 1381 
L 544 3500 
L 1119 3500 
L 1119 1403 
Q 1119 906 1312 657 
Q 1506 409 1894 409 
Q 2359 409 2629 706 
Q 2900 1003 2900 1516 
L 2900 3500 
L 3475 3500 
L 3475 0 
L 2900 0 
L 2900 538 
Q 2691 219 2414 64 
Q 2138 -91 1772 -91 
Q 1169 -91 856 284 
Q 544 659 544 1381 
z
M 1991 3584 
L 1991 3584 
z
" transform="scale(0.015625)"/>
       <path id="DejaVuSans-6c" d="M 603 4863 
L 1178 4863 
L 1178 0 
L 603 0 
L 603 4863 
z
" transform="scale(0.015625)"/>
      </defs>
      <use xlink:href="#DejaVuSans-Oblique-55" transform="translate(0 0.09375)"/>
      <use xlink:href="#DejaVuSans-53" transform="translate(73.193359 -16.3125) scale(0.7)"/>
      <use xlink:href="#DejaVuSans-70" transform="translate(117.626953 -16.3125) scale(0.7)"/>
      <use xlink:href="#DejaVuSans-75" transform="translate(162.060547 -16.3125) scale(0.7)"/>
      <use xlink:href="#DejaVuSans-6c" transform="translate(206.425781 -16.3125) scale(0.7)"/>
      <use xlink:href="#DejaVuSans-65" transform="translate(225.874023 -16.3125) scale(0.7)"/>
      <use xlink:href="#DejaVuSans-2f" transform="translate(271.674805 0.09375)"/>
      <use xlink:href="#DejaVuSans-56" transform="translate(305.366211 0.09375)"/>
     </g>
    </g>
   </g>
   <g id="line2d_36">
    <path d="M 73.832727 295.488 
L 139.958843 295.488 
L 140.218671 58.027355 
L 140.348585 53.568 
L 140.738326 53.568 
L 140.86824 54.682839 
L 140.998153 53.568 
L 141.128067 54.682839 
L 141.517809 54.682839 
L 141.647722 55.797677 
L 141.90755 55.797677 
L 142.037464 56.912516 
L 142.167377 55.797677 
L 142.427205 58.027355 
L 142.816946 58.027355 
L 142.94686 59.142194 
L 143.466515 59.142194 
L 143.596429 60.257032 
L 143.726343 59.142194 
L 143.856257 60.257032 
L 143.98617 60.257032 
L 144.116084 61.371871 
L 144.635739 61.371871 
L 144.765653 62.48671 
L 145.155395 62.48671 
L 145.285308 63.601548 
L 145.415222 62.48671 
L 145.545136 63.601548 
L 145.67505 63.601548 
L 145.804963 64.716387 
L 146.324619 64.716387 
L 146.454532 65.831226 
L 147.363929 65.831226 
L 147.623756 68.060903 
L 147.75367 66.946065 
L 148.013498 66.946065 
L 148.143412 68.060903 
L 148.533153 68.060903 
L 148.663067 69.175742 
L 149.312636 69.175742 
L 149.442549 70.290581 
L 150.351946 70.290581 
L 150.48186 71.405419 
L 150.611773 71.405419 
L 150.741687 70.290581 
L 150.871601 71.405419 
L 151.001515 71.405419 
L 151.131429 72.520258 
L 151.261342 71.405419 
L 151.391256 71.405419 
L 151.52117 72.520258 
L 151.651084 71.405419 
L 151.780997 72.520258 
L 152.430566 72.520258 
L 152.56048 73.635097 
L 152.690394 73.635097 
L 152.820308 72.520258 
L 152.950222 74.749935 
L 153.080135 73.635097 
L 153.210049 74.749935 
L 153.339963 74.749935 
L 153.469877 73.635097 
L 153.59979 73.635097 
L 153.729704 74.749935 
L 154.119446 74.749935 
L 154.249359 75.864774 
L 154.379273 75.864774 
L 154.509187 74.749935 
L 154.639101 74.749935 
L 154.769015 75.864774 
L 155.028842 75.864774 
L 155.158756 76.979613 
L 156.457894 76.979613 
L 156.587807 78.094452 
L 157.237376 78.094452 
L 157.36729 79.20929 
L 157.497204 78.094452 
L 157.627118 79.20929 
L 157.757032 78.094452 
L 157.886945 79.20929 
L 158.146773 79.20929 
L 158.276687 80.324129 
L 158.4066 79.20929 
L 158.536514 80.324129 
L 158.926256 80.324129 
L 159.056169 79.20929 
L 159.186083 80.324129 
L 160.09548 80.324129 
L 160.225393 81.438968 
L 160.355307 80.324129 
L 160.485221 81.438968 
L 161.524531 81.438968 
L 161.654445 82.553806 
L 161.914273 82.553806 
L 162.044186 81.438968 
L 162.1741 82.553806 
L 163.083497 82.553806 
L 163.21341 83.668645 
L 164.252721 83.668645 
L 164.382635 84.783484 
L 164.512548 84.783484 
L 164.642462 83.668645 
L 164.772376 84.783484 
L 165.162117 84.783484 
L 165.292031 85.898323 
L 165.421945 84.783484 
L 165.551859 85.898323 
L 165.681772 84.783484 
L 165.811686 85.898323 
L 166.98091 85.898323 
L 167.110824 87.013161 
L 167.240738 85.898323 
L 167.370652 87.013161 
L 167.500565 85.898323 
L 167.630479 87.013161 
L 168.280048 87.013161 
L 168.409962 88.128 
L 168.539876 85.898323 
L 168.669789 88.128 
L 168.799703 87.013161 
L 169.059531 87.013161 
L 169.189445 88.128 
L 169.319358 87.013161 
L 169.449272 87.013161 
L 169.579186 88.128 
L 170.488582 88.128 
L 170.618496 89.242839 
L 171.008237 89.242839 
L 171.138151 88.128 
L 171.527893 88.128 
L 171.657806 89.242839 
L 171.78772 88.128 
L 171.917634 89.242839 
L 172.047548 89.242839 
L 172.177462 90.357677 
L 172.307375 89.242839 
L 172.697117 89.242839 
L 172.82703 90.357677 
L 172.956944 89.242839 
L 173.086858 90.357677 
L 173.866341 90.357677 
L 173.996255 91.472516 
L 174.126168 90.357677 
L 174.256082 90.357677 
L 174.385996 91.472516 
L 174.51591 90.357677 
L 174.645823 91.472516 
L 174.775737 90.357677 
L 174.905651 91.472516 
L 175.685134 91.472516 
L 175.815047 90.357677 
L 175.944961 91.472516 
L 176.074875 91.472516 
L 176.204789 92.587355 
L 176.59453 92.587355 
L 176.724444 91.472516 
L 176.854358 92.587355 
L 176.984272 92.587355 
L 177.114185 91.472516 
L 177.244099 92.587355 
L 177.893668 92.587355 
L 178.023582 93.702194 
L 178.153496 92.587355 
L 178.283409 92.587355 
L 178.413323 93.702194 
L 179.582547 93.702194 
L 179.712461 94.817032 
L 179.842375 93.702194 
L 180.36203 93.702194 
L 180.491944 94.817032 
L 182.570564 94.817032 
L 182.700478 95.931871 
L 182.830392 94.817032 
L 182.960306 95.931871 
L 183.220133 95.931871 
L 183.350047 94.817032 
L 183.479961 95.931871 
L 183.609874 95.931871 
L 183.739788 94.817032 
L 183.869702 94.817032 
L 183.999616 95.931871 
L 184.779099 95.931871 
L 184.909012 97.04671 
L 185.16884 97.04671 
L 185.298754 95.931871 
L 185.428667 97.04671 
L 185.558581 95.931871 
L 185.688495 97.04671 
L 186.727805 97.04671 
L 186.857719 98.161548 
L 186.987633 97.04671 
L 187.117547 97.04671 
L 187.24746 98.161548 
L 187.377374 97.04671 
L 187.507288 97.04671 
L 187.637202 98.161548 
L 187.767116 97.04671 
L 187.897029 97.04671 
L 188.026943 98.161548 
L 189.455995 98.161548 
L 189.585909 99.276387 
L 189.715822 98.161548 
L 189.845736 99.276387 
L 189.97565 99.276387 
L 190.105564 98.161548 
L 190.365391 98.161548 
L 190.495305 99.276387 
L 192.05427 99.276387 
L 192.184184 100.391226 
L 192.314098 99.276387 
L 192.703839 99.276387 
L 192.833753 100.391226 
L 192.963667 99.276387 
L 193.223494 99.276387 
L 193.353408 100.391226 
L 193.483322 99.276387 
L 193.613236 100.391226 
L 194.002977 100.391226 
L 194.132891 99.276387 
L 194.262805 99.276387 
L 194.392719 100.391226 
L 194.652546 100.391226 
L 194.78246 99.276387 
L 194.912374 100.391226 
L 195.042287 100.391226 
L 195.172201 101.506065 
L 195.432029 101.506065 
L 195.691856 99.276387 
L 195.82177 100.391226 
L 195.951684 100.391226 
L 196.081598 101.506065 
L 196.211512 100.391226 
L 196.341425 101.506065 
L 198.160218 101.506065 
L 198.290132 99.276387 
L 198.420046 101.506065 
L 200.498666 101.506065 
L 200.62858 102.620903 
L 201.148235 102.620903 
L 201.278149 101.506065 
L 201.408063 102.620903 
L 201.797804 102.620903 
L 201.927718 103.735742 
L 202.057632 102.620903 
L 202.447373 102.620903 
L 202.577287 103.735742 
L 202.707201 103.735742 
L 202.837114 102.620903 
L 202.967028 102.620903 
L 203.096942 103.735742 
L 203.226856 103.735742 
L 203.35677 102.620903 
L 203.486683 103.735742 
L 203.616597 102.620903 
L 203.746511 102.620903 
L 203.876425 103.735742 
L 204.525994 103.735742 
L 204.655907 102.620903 
L 204.785821 103.735742 
L 205.43539 103.735742 
L 205.565304 102.620903 
L 205.695218 103.735742 
L 206.604614 103.735742 
L 206.734528 104.850581 
L 206.864442 103.735742 
L 206.994356 104.850581 
L 207.514011 104.850581 
L 207.643924 103.735742 
L 207.773838 104.850581 
L 207.903752 104.850581 
L 208.033666 103.735742 
L 208.16358 104.850581 
L 208.293493 103.735742 
L 208.423407 104.850581 
L 208.813149 104.850581 
L 208.943062 103.735742 
L 209.072976 104.850581 
L 209.332804 104.850581 
L 209.462717 103.735742 
L 209.592631 104.850581 
L 209.982373 104.850581 
L 210.112286 105.965419 
L 210.2422 104.850581 
L 210.372114 104.850581 
L 210.502028 105.965419 
L 210.631942 105.965419 
L 210.761855 104.850581 
L 210.891769 104.850581 
L 211.021683 105.965419 
L 211.28151 105.965419 
L 211.411424 104.850581 
L 211.541338 104.850581 
L 211.671252 105.965419 
L 211.801166 104.850581 
L 211.931079 105.965419 
L 212.190907 105.965419 
L 212.320821 104.850581 
L 212.450734 105.965419 
L 212.840476 105.965419 
L 212.97039 104.850581 
L 213.100303 105.965419 
L 213.360131 105.965419 
L 213.490045 104.850581 
L 213.619959 105.965419 
L 213.749872 104.850581 
L 213.879786 105.965419 
L 216.218234 105.965419 
L 216.348148 107.080258 
L 216.478062 105.965419 
L 216.607976 105.965419 
L 216.737889 107.080258 
L 216.867803 105.965419 
L 216.997717 105.965419 
L 217.127631 107.080258 
L 217.387458 107.080258 
L 217.517372 105.965419 
L 217.647286 105.965419 
L 217.7772 107.080258 
L 218.037027 107.080258 
L 218.166941 105.965419 
L 218.296855 107.080258 
L 218.426769 107.080258 
L 218.556682 105.965419 
L 218.686596 107.080258 
L 220.115648 107.080258 
L 220.245561 105.965419 
L 220.375475 107.080258 
L 221.154958 107.080258 
L 221.284872 108.195097 
L 221.414786 107.080258 
L 221.674613 107.080258 
L 221.804527 108.195097 
L 221.934441 107.080258 
L 222.194268 107.080258 
L 222.324182 108.195097 
L 222.454096 107.080258 
L 222.58401 108.195097 
L 222.713923 107.080258 
L 222.843837 108.195097 
L 222.973751 107.080258 
L 223.363492 107.080258 
L 223.493406 108.195097 
L 223.62332 107.080258 
L 223.753234 108.195097 
L 223.883147 108.195097 
L 224.013061 107.080258 
L 224.142975 107.080258 
L 224.272889 108.195097 
L 224.402803 108.195097 
L 224.532716 107.080258 
L 224.66263 108.195097 
L 224.792544 108.195097 
L 224.922458 107.080258 
L 225.052371 108.195097 
L 225.182285 107.080258 
L 225.312199 108.195097 
L 225.442113 107.080258 
L 225.572027 108.195097 
L 227.130992 108.195097 
L 227.260906 107.080258 
L 227.520733 109.309935 
L 227.650647 108.195097 
L 227.910475 108.195097 
L 228.040389 109.309935 
L 228.170302 108.195097 
L 228.43013 108.195097 
L 228.560044 107.080258 
L 228.819871 109.309935 
L 228.949785 108.195097 
L 229.859181 108.195097 
L 229.989095 109.309935 
L 230.119009 108.195097 
L 230.638664 108.195097 
L 230.768578 109.309935 
L 231.028406 109.309935 
L 231.158319 108.195097 
L 231.677974 108.195097 
L 231.807888 109.309935 
L 232.067716 109.309935 
L 232.19763 108.195097 
L 232.457457 108.195097 
L 232.587371 109.309935 
L 232.717285 109.309935 
L 232.847199 108.195097 
L 232.977112 109.309935 
L 233.23694 109.309935 
L 233.366854 108.195097 
L 233.496767 109.309935 
L 233.756595 109.309935 
L 233.886509 108.195097 
L 234.016423 109.309935 
L 234.406164 109.309935 
L 234.536078 108.195097 
L 234.665991 110.424774 
L 234.795905 109.309935 
L 234.925819 109.309935 
L 235.055733 108.195097 
L 235.31556 110.424774 
L 235.575388 110.424774 
L 235.705302 109.309935 
L 235.835216 109.309935 
L 235.965129 110.424774 
L 236.095043 109.309935 
L 236.224957 110.424774 
L 236.354871 109.309935 
L 236.874526 109.309935 
L 237.00444 110.424774 
L 237.134353 110.424774 
L 237.264267 109.309935 
L 237.783922 109.309935 
L 237.913836 110.424774 
L 238.04375 109.309935 
L 238.303577 109.309935 
L 238.433491 110.424774 
L 238.563405 109.309935 
L 238.693319 110.424774 
L 238.823233 109.309935 
L 239.08306 109.309935 
L 239.212974 110.424774 
L 239.342888 109.309935 
L 239.472801 110.424774 
L 239.732629 110.424774 
L 239.862543 109.309935 
L 239.992457 110.424774 
L 241.291594 110.424774 
L 241.421508 109.309935 
L 241.551422 110.424774 
L 244.149698 110.424774 
L 244.279611 109.309935 
L 244.539439 111.539613 
L 244.669353 110.424774 
L 245.059094 110.424774 
L 245.189008 109.309935 
L 245.318922 110.424774 
L 247.137715 110.424774 
L 247.267629 111.539613 
L 247.397542 110.424774 
L 247.527456 110.424774 
L 247.65737 111.539613 
L 247.787284 110.424774 
L 247.917197 110.424774 
L 248.047111 111.539613 
L 248.177025 110.424774 
L 248.826594 110.424774 
L 248.956508 111.539613 
L 249.086421 110.424774 
L 249.216335 110.424774 
L 249.346249 111.539613 
L 249.476163 110.424774 
L 249.865904 110.424774 
L 249.995818 111.539613 
L 250.125732 110.424774 
L 250.255646 110.424774 
L 250.385559 111.539613 
L 250.515473 110.424774 
L 251.035128 110.424774 
L 251.165042 111.539613 
L 251.294956 110.424774 
L 251.42487 111.539613 
L 251.554783 110.424774 
L 251.684697 111.539613 
L 251.944525 111.539613 
L 252.074439 110.424774 
L 252.204352 111.539613 
L 252.334266 110.424774 
L 252.46418 111.539613 
L 252.594094 110.424774 
L 252.724007 110.424774 
L 252.853921 111.539613 
L 252.983835 110.424774 
L 253.113749 111.539613 
L 253.243663 110.424774 
L 253.373576 111.539613 
L 253.50349 110.424774 
L 253.633404 111.539613 
L 253.763318 110.424774 
L 254.023145 110.424774 
L 254.153059 111.539613 
L 254.282973 111.539613 
L 254.412887 110.424774 
L 254.5428 111.539613 
L 254.802628 111.539613 
L 254.932542 110.424774 
L 255.062456 110.424774 
L 255.192369 111.539613 
L 255.452197 111.539613 
L 255.582111 110.424774 
L 255.712024 110.424774 
L 255.841938 111.539613 
L 255.971852 110.424774 
L 256.101766 111.539613 
L 256.621421 111.539613 
L 256.751335 110.424774 
L 256.881248 111.539613 
L 257.141076 111.539613 
L 257.27099 110.424774 
L 257.660731 110.424774 
L 257.790645 111.539613 
L 258.050473 111.539613 
L 258.180386 110.424774 
L 258.3103 111.539613 
L 258.440214 111.539613 
L 258.570128 110.424774 
L 258.700041 111.539613 
L 260.259007 111.539613 
L 260.388921 112.654452 
L 260.518834 112.654452 
L 260.648748 111.539613 
L 261.03849 111.539613 
L 261.168403 110.424774 
L 261.298317 111.539613 
L 261.688058 111.539613 
L 261.817972 112.654452 
L 261.947886 111.539613 
L 262.0778 111.539613 
L 262.207714 112.654452 
L 262.337627 112.654452 
L 262.467541 111.539613 
L 262.597455 112.654452 
L 262.727369 112.654452 
L 262.857283 111.539613 
L 263.247024 111.539613 
L 263.376938 112.654452 
L 263.506851 112.654452 
L 263.636765 111.539613 
L 263.766679 112.654452 
L 263.896593 111.539613 
L 264.026507 111.539613 
L 264.15642 112.654452 
L 264.416248 112.654452 
L 264.546162 111.539613 
L 264.676076 112.654452 
L 264.805989 111.539613 
L 264.935903 112.654452 
L 265.455558 112.654452 
L 265.585472 111.539613 
L 265.715386 111.539613 
L 265.8453 112.654452 
L 265.975213 111.539613 
L 266.105127 111.539613 
L 266.235041 112.654452 
L 266.364955 112.654452 
L 266.494868 111.539613 
L 266.624782 111.539613 
L 266.754696 110.424774 
L 266.88461 112.654452 
L 267.274351 112.654452 
L 267.404265 111.539613 
L 267.534179 112.654452 
L 267.664093 112.654452 
L 267.794006 111.539613 
L 267.92392 112.654452 
L 268.183748 112.654452 
L 268.313661 111.539613 
L 268.443575 112.654452 
L 269.223058 112.654452 
L 269.352972 111.539613 
L 269.482886 112.654452 
L 269.742713 112.654452 
L 269.872627 111.539613 
L 270.002541 112.654452 
L 270.262368 112.654452 
L 270.392282 111.539613 
L 270.522196 112.654452 
L 270.65211 112.654452 
L 270.782023 111.539613 
L 270.911937 111.539613 
L 271.041851 112.654452 
L 272.340989 112.654452 
L 272.470903 111.539613 
L 272.600816 112.654452 
L 276.108488 112.654452 
L 276.238402 113.76929 
L 276.368316 112.654452 
L 278.187109 112.654452 
L 278.317023 113.76929 
L 278.446937 112.654452 
L 279.226419 112.654452 
L 279.356333 113.76929 
L 279.486247 112.654452 
L 280.915298 112.654452 
L 281.045212 113.76929 
L 281.175126 113.76929 
L 281.30504 112.654452 
L 282.993919 112.654452 
L 283.123833 113.76929 
L 283.253747 112.654452 
L 283.38366 112.654452 
L 283.513574 113.76929 
L 283.773402 111.539613 
L 283.903316 112.654452 
L 284.942626 112.654452 
L 285.07254 113.76929 
L 285.202453 112.654452 
L 285.981936 112.654452 
L 286.11185 113.76929 
L 286.241764 112.654452 
L 286.501591 112.654452 
L 286.631505 113.76929 
L 286.761419 112.654452 
L 286.891333 112.654452 
L 287.021246 113.76929 
L 287.15116 112.654452 
L 287.281074 113.76929 
L 287.410988 112.654452 
L 287.540901 113.76929 
L 287.670815 113.76929 
L 287.800729 112.654452 
L 288.060557 112.654452 
L 288.19047 113.76929 
L 288.320384 112.654452 
L 288.840039 112.654452 
L 288.969953 113.76929 
L 289.359694 113.76929 
L 289.489608 112.654452 
L 289.619522 113.76929 
L 289.749436 112.654452 
L 290.139177 112.654452 
L 290.269091 113.76929 
L 290.399005 112.654452 
L 290.91866 112.654452 
L 291.048574 113.76929 
L 291.178487 112.654452 
L 291.308401 113.76929 
L 291.438315 112.654452 
L 291.568229 112.654452 
L 291.698143 113.76929 
L 291.828056 112.654452 
L 291.95797 112.654452 
L 292.087884 113.76929 
L 292.347711 113.76929 
L 292.477625 112.654452 
L 292.867367 112.654452 
L 292.99728 113.76929 
L 293.127194 112.654452 
L 293.257108 113.76929 
L 293.387022 113.76929 
L 293.516936 112.654452 
L 293.646849 112.654452 
L 293.776763 113.76929 
L 293.906677 113.76929 
L 294.036591 112.654452 
L 294.166504 112.654452 
L 294.296418 113.76929 
L 294.556246 113.76929 
L 294.68616 112.654452 
L 294.816073 113.76929 
L 295.075901 113.76929 
L 295.205815 112.654452 
L 295.335728 113.76929 
L 295.465642 113.76929 
L 295.595556 112.654452 
L 295.855384 112.654452 
L 295.985297 113.76929 
L 296.115211 113.76929 
L 296.245125 112.654452 
L 296.375039 113.76929 
L 296.504953 113.76929 
L 296.634866 112.654452 
L 296.894694 112.654452 
L 297.024608 113.76929 
L 297.154521 112.654452 
L 297.544263 112.654452 
L 297.674177 113.76929 
L 297.80409 112.654452 
L 298.453659 112.654452 
L 298.583573 113.76929 
L 298.713487 112.654452 
L 298.843401 113.76929 
L 298.973314 113.76929 
L 299.103228 112.654452 
L 299.233142 113.76929 
L 299.363056 112.654452 
L 299.49297 113.76929 
L 299.752797 113.76929 
L 299.882711 112.654452 
L 300.012625 113.76929 
L 300.142538 112.654452 
L 300.272452 113.76929 
L 300.662194 113.76929 
L 300.792107 112.654452 
L 300.922021 113.76929 
L 301.181849 113.76929 
L 301.311763 112.654452 
L 301.441676 113.76929 
L 301.701504 113.76929 
L 301.831418 112.654452 
L 301.961331 113.76929 
L 302.351073 113.76929 
L 302.480987 114.884129 
L 302.6109 113.76929 
L 302.870728 113.76929 
L 303.000642 112.654452 
L 303.130555 113.76929 
L 303.650211 113.76929 
L 303.780124 112.654452 
L 304.169866 112.654452 
L 304.29978 113.76929 
L 305.079262 113.76929 
L 305.209176 114.884129 
L 305.33909 113.76929 
L 305.988659 113.76929 
L 306.118573 112.654452 
L 306.248486 113.76929 
L 307.287797 113.76929 
L 307.41771 112.654452 
L 307.547624 113.76929 
L 308.586934 113.76929 
L 308.716848 112.654452 
L 308.846762 113.76929 
L 309.886072 113.76929 
L 310.015986 112.654452 
L 310.1459 113.76929 
L 310.275814 113.76929 
L 310.405727 114.884129 
L 310.535641 114.884129 
L 310.665555 112.654452 
L 310.795469 113.76929 
L 310.925383 112.654452 
L 311.055296 113.76929 
L 311.18521 112.654452 
L 311.315124 113.76929 
L 312.354434 113.76929 
L 312.484348 112.654452 
L 312.614262 113.76929 
L 313.393744 113.76929 
L 313.523658 112.654452 
L 313.783486 114.884129 
L 313.9134 113.76929 
L 314.562968 113.76929 
L 314.692882 114.884129 
L 314.95271 112.654452 
L 315.082624 114.884129 
L 315.212537 113.76929 
L 315.342451 113.76929 
L 315.472365 112.654452 
L 315.602279 113.76929 
L 316.251848 113.76929 
L 316.381761 112.654452 
L 316.511675 113.76929 
L 317.03133 113.76929 
L 317.161244 112.654452 
L 317.291158 113.76929 
L 318.200554 113.76929 
L 318.330468 114.884129 
L 318.460382 114.884129 
L 318.590296 113.76929 
L 318.72021 113.76929 
L 318.850123 114.884129 
L 318.980037 113.76929 
L 319.109951 113.76929 
L 319.239865 114.884129 
L 319.369778 113.76929 
L 319.499692 113.76929 
L 319.629606 112.654452 
L 319.75952 113.76929 
L 320.279175 113.76929 
L 320.409089 114.884129 
L 320.539003 113.76929 
L 320.79883 113.76929 
L 320.928744 112.654452 
L 321.188571 114.884129 
L 321.318485 113.76929 
L 321.448399 114.884129 
L 321.968054 114.884129 
L 322.097968 113.76929 
L 323.007364 113.76929 
L 323.137278 112.654452 
L 323.397106 114.884129 
L 323.52702 113.76929 
L 325.085985 113.76929 
L 325.215899 114.884129 
L 325.345813 113.76929 
L 325.475726 114.884129 
L 325.60564 113.76929 
L 325.865468 113.76929 
L 325.995381 114.884129 
L 326.125295 113.76929 
L 327.294519 113.76929 
L 327.424433 114.884129 
L 327.684261 114.884129 
L 327.814174 113.76929 
L 328.983398 113.76929 
L 329.113312 114.884129 
L 329.243226 113.76929 
L 330.282536 113.76929 
L 330.41245 114.884129 
L 330.542364 113.76929 
L 330.672278 113.76929 
L 330.802191 114.884129 
L 331.062019 114.884129 
L 331.191933 113.76929 
L 331.841502 113.76929 
L 331.971415 112.654452 
L 332.101329 113.76929 
L 332.361157 113.76929 
L 332.491071 114.884129 
L 332.620984 114.884129 
L 332.750898 113.76929 
L 333.530381 113.76929 
L 333.660295 114.884129 
L 333.790208 113.76929 
L 334.17995 113.76929 
L 334.309864 114.884129 
L 334.569691 114.884129 
L 334.699605 113.76929 
L 334.829519 114.884129 
L 334.959433 113.76929 
L 335.21926 113.76929 
L 335.349174 114.884129 
L 335.479088 114.884129 
L 335.609001 113.76929 
L 336.908139 113.76929 
L 337.038053 114.884129 
L 337.167967 113.76929 
L 337.427794 113.76929 
L 337.557708 114.884129 
L 337.687622 113.76929 
L 337.817536 114.884129 
L 337.94745 113.76929 
L 339.116674 113.76929 
L 339.246587 114.884129 
L 339.376501 113.76929 
L 339.506415 114.884129 
L 339.636329 113.76929 
L 339.766242 114.884129 
L 339.896156 113.76929 
L 340.415811 113.76929 
L 340.545725 114.884129 
L 340.675639 113.76929 
L 340.805553 113.76929 
L 340.935467 114.884129 
L 341.06538 113.76929 
L 341.455122 113.76929 
L 341.585035 114.884129 
L 341.714949 114.884129 
L 341.844863 113.76929 
L 342.234604 113.76929 
L 342.364518 114.884129 
L 342.494432 113.76929 
L 342.884173 113.76929 
L 343.014087 114.884129 
L 343.144001 113.76929 
L 343.403828 113.76929 
L 343.533742 114.884129 
L 343.79357 114.884129 
L 343.923484 113.76929 
L 344.053397 114.884129 
L 344.183311 114.884129 
L 344.313225 113.76929 
L 344.443139 114.884129 
L 344.573052 113.76929 
L 344.702966 114.884129 
L 344.83288 113.76929 
L 345.092708 113.76929 
L 345.222621 114.884129 
L 345.352535 113.76929 
L 346.132018 113.76929 
L 346.261932 114.884129 
L 346.391845 113.76929 
L 346.521759 114.884129 
L 346.651673 113.76929 
L 346.911501 113.76929 
L 347.041414 114.884129 
L 347.171328 113.76929 
L 347.56107 113.76929 
L 347.690983 114.884129 
L 347.820897 114.884129 
L 347.950811 113.76929 
L 348.080725 114.884129 
L 348.340552 114.884129 
L 348.470466 113.76929 
L 348.860207 113.76929 
L 348.990121 114.884129 
L 349.120035 113.76929 
L 349.249949 113.76929 
L 349.379862 114.884129 
L 349.63969 114.884129 
L 349.769604 113.76929 
L 350.029431 113.76929 
L 350.159345 114.884129 
L 350.289259 113.76929 
L 350.549087 113.76929 
L 350.679 114.884129 
L 350.808914 113.76929 
L 350.938828 114.884129 
L 351.068742 113.76929 
L 351.198655 114.884129 
L 351.328569 113.76929 
L 351.458483 113.76929 
L 351.588397 114.884129 
L 351.718311 113.76929 
L 351.978138 113.76929 
L 352.108052 114.884129 
L 352.36788 114.884129 
L 352.497793 113.76929 
L 352.627707 114.884129 
L 352.757621 112.654452 
L 352.887535 114.884129 
L 353.017448 113.76929 
L 353.147362 114.884129 
L 353.277276 113.76929 
L 353.40719 114.884129 
L 353.537104 113.76929 
L 353.667017 114.884129 
L 354.056759 114.884129 
L 354.186672 113.76929 
L 354.4465 113.76929 
L 354.576414 114.884129 
L 354.836241 114.884129 
L 354.966155 113.76929 
L 355.096069 114.884129 
L 355.225983 113.76929 
L 355.355897 114.884129 
L 355.48581 113.76929 
L 355.615724 114.884129 
L 355.745638 113.76929 
L 355.875552 114.884129 
L 356.525121 114.884129 
L 356.655034 295.488 
L 398.487273 295.488 
L 398.487273 295.488 
" clip-path="url(#p63261d69c5)" style="fill: none; stroke: #000000; stroke-width: 1.5; stroke-linecap: square"/>
   </g>
   <g id="patch_7">
    <path d="M 57.6 307.584 
L 57.6 41.472 
" style="fill: none; stroke: #000000; stroke-width: 0.8; stroke-linejoin: miter; stroke-linecap: square"/>
   </g>
   <g id="patch_8">
    <path d="M 414.72 307.584 
L 414.72 41.472 
" style="fill: none; stroke: #000000; stroke-width: 0.8; stroke-linejoin: miter; stroke-linecap: square"/>
   </g>
   <g id="patch_9">
    <path d="M 57.6 307.584 
L 414.72 307.584 
" style="fill: none; stroke: #000000; stroke-width: 0.8; stroke-linejoin: miter; stroke-linecap: square"/>
   </g>
   <g id="patch_10">
    <path d="M 57.6 41.472 
L 414.72 41.472 
" style="fill: none; stroke: #000000; stroke-width: 0.8; stroke-linejoin: miter; stroke-linecap: square"/>
   </g>
  </g>
  <g id="legend_1">
   <g id="patch_11">
    <path d="M 328.548437 37.35625 
L 453.8 37.35625 
Q 455.8 37.35625 455.8 35.35625 
L 455.8 7 
Q 455.8 5 453.8 5 
L 328.548437 5 
Q 326.548437 5 326.548437 7 
L 326.548437 35.35625 
Q 326.548437 37.35625 328.548437 37.35625 
z
" style="fill: #ffffff; opacity: 0.8; stroke: #cccccc; stroke-linejoin: miter"/>
   </g>
   <g id="line2d_37">
    <path d="M 330.548437 13.098437 
L 340.548437 13.098437 
L 350.548437 13.098437 
" style="fill: none; stroke: #ff0000; stroke-width: 1.5; stroke-linecap: square"/>
   </g>
   <g id="text_24">
    <!-- Detektorspannung -->
    <g transform="translate(358.548437 16.598437) scale(0.1 -0.1)">
     <defs>
      <path id="DejaVuSans-61" d="M 2194 1759 
Q 1497 1759 1228 1600 
Q 959 1441 959 1056 
Q 959 750 1161 570 
Q 1363 391 1709 391 
Q 2188 391 2477 730 
Q 2766 1069 2766 1631 
L 2766 1759 
L 2194 1759 
z
M 3341 1997 
L 3341 0 
L 2766 0 
L 2766 531 
Q 2569 213 2275 61 
Q 1981 -91 1556 -91 
Q 1019 -91 701 211 
Q 384 513 384 1019 
Q 384 1609 779 1909 
Q 1175 2209 1959 2209 
L 2766 2209 
L 2766 2266 
Q 2766 2663 2505 2880 
Q 2244 3097 1772 3097 
Q 1472 3097 1187 3025 
Q 903 2953 641 2809 
L 641 3341 
Q 956 3463 1253 3523 
Q 1550 3584 1831 3584 
Q 2591 3584 2966 3190 
Q 3341 2797 3341 1997 
z
" transform="scale(0.015625)"/>
      <path id="DejaVuSans-6e" d="M 3513 2113 
L 3513 0 
L 2938 0 
L 2938 2094 
Q 2938 2591 2744 2837 
Q 2550 3084 2163 3084 
Q 1697 3084 1428 2787 
Q 1159 2491 1159 1978 
L 1159 0 
L 581 0 
L 581 3500 
L 1159 3500 
L 1159 2956 
Q 1366 3272 1645 3428 
Q 1925 3584 2291 3584 
Q 2894 3584 3203 3211 
Q 3513 2838 3513 2113 
z
" transform="scale(0.015625)"/>
      <path id="DejaVuSans-67" d="M 2906 1791 
Q 2906 2416 2648 2759 
Q 2391 3103 1925 3103 
Q 1463 3103 1205 2759 
Q 947 2416 947 1791 
Q 947 1169 1205 825 
Q 1463 481 1925 481 
Q 2391 481 2648 825 
Q 2906 1169 2906 1791 
z
M 3481 434 
Q 3481 -459 3084 -895 
Q 2688 -1331 1869 -1331 
Q 1566 -1331 1297 -1286 
Q 1028 -1241 775 -1147 
L 775 -588 
Q 1028 -725 1275 -790 
Q 1522 -856 1778 -856 
Q 2344 -856 2625 -561 
Q 2906 -266 2906 331 
L 2906 616 
Q 2728 306 2450 153 
Q 2172 0 1784 0 
Q 1141 0 747 490 
Q 353 981 353 1791 
Q 353 2603 747 3093 
Q 1141 3584 1784 3584 
Q 2172 3584 2450 3431 
Q 2728 3278 2906 2969 
L 2906 3500 
L 3481 3500 
L 3481 434 
z
" transform="scale(0.015625)"/>
     </defs>
     <use xlink:href="#DejaVuSans-44"/>
     <use xlink:href="#DejaVuSans-65" x="77.001953"/>
     <use xlink:href="#DejaVuSans-74" x="138.525391"/>
     <use xlink:href="#DejaVuSans-65" x="177.734375"/>
     <use xlink:href="#DejaVuSans-6b" x="239.257812"/>
     <use xlink:href="#DejaVuSans-74" x="297.167969"/>
     <use xlink:href="#DejaVuSans-6f" x="336.376953"/>
     <use xlink:href="#DejaVuSans-72" x="397.558594"/>
     <use xlink:href="#DejaVuSans-73" x="438.671875"/>
     <use xlink:href="#DejaVuSans-70" x="490.771484"/>
     <use xlink:href="#DejaVuSans-61" x="554.248047"/>
     <use xlink:href="#DejaVuSans-6e" x="615.527344"/>
     <use xlink:href="#DejaVuSans-6e" x="678.90625"/>
     <use xlink:href="#DejaVuSans-75" x="742.285156"/>
     <use xlink:href="#DejaVuSans-6e" x="805.664062"/>
     <use xlink:href="#DejaVuSans-67" x="869.042969"/>
    </g>
   </g>
   <g id="line2d_38">
    <path d="M 330.548437 27.776563 
L 340.548437 27.776563 
L 350.548437 27.776563 
" style="fill: none; stroke: #000000; stroke-width: 1.5; stroke-linecap: square"/>
   </g>
   <g id="text_25">
    <!-- Spulenspannung -->
    <g transform="translate(358.548437 31.276563) scale(0.1 -0.1)">
     <use xlink:href="#DejaVuSans-53"/>
     <use xlink:href="#DejaVuSans-70" x="63.476562"/>
     <use xlink:href="#DejaVuSans-75" x="126.953125"/>
     <use xlink:href="#DejaVuSans-6c" x="190.332031"/>
     <use xlink:href="#DejaVuSans-65" x="218.115234"/>
     <use xlink:href="#DejaVuSans-6e" x="279.638672"/>
     <use xlink:href="#DejaVuSans-73" x="343.017578"/>
     <use xlink:href="#DejaVuSans-70" x="395.117188"/>
     <use xlink:href="#DejaVuSans-61" x="458.59375"/>
     <use xlink:href="#DejaVuSans-6e" x="519.873047"/>
     <use xlink:href="#DejaVuSans-6e" x="583.251953"/>
     <use xlink:href="#DejaVuSans-75" x="646.630859"/>
     <use xlink:href="#DejaVuSans-6e" x="710.009766"/>
     <use xlink:href="#DejaVuSans-67" x="773.388672"/>
    </g>
   </g>
  </g>
 </g>
 <defs>
  <clipPath id="p63261d69c5">
   <rect x="57.6" y="41.472" width="357.12" height="266.112"/>
  </clipPath>
 </defs>
</svg>
