<?xml version="1.0" encoding="utf-8" standalone="no"?>
<!DOCTYPE svg PUBLIC "-//W3C//DTD SVG 1.1//EN"
  "http://www.w3.org/Graphics/SVG/1.1/DTD/svg11.dtd">
<svg xmlns:xlink="http://www.w3.org/1999/xlink" width="460.8pt" height="345.6pt" viewBox="0 0 460.8 345.6" xmlns="http://www.w3.org/2000/svg" version="1.1">
 <metadata>
  <rdf:RDF xmlns:dc="http://purl.org/dc/elements/1.1/" xmlns:cc="http://creativecommons.org/ns#" xmlns:rdf="http://www.w3.org/1999/02/22-rdf-syntax-ns#">
   <cc:Work>
    <dc:type rdf:resource="http://purl.org/dc/dcmitype/StillImage"/>
    <dc:date>2022-11-07T14:47:38.690602</dc:date>
    <dc:format>image/svg+xml</dc:format>
    <dc:creator>
     <cc:Agent>
      <dc:title>Matplotlib v3.6.2, https://matplotlib.org/</dc:title>
     </cc:Agent>
    </dc:creator>
   </cc:Work>
  </rdf:RDF>
 </metadata>
 <defs>
  <style type="text/css">*{stroke-linejoin: round; stroke-linecap: butt}</style>
 </defs>
 <g id="figure_1">
  <g id="patch_1">
   <path d="M 0 345.6 
L 460.8 345.6 
L 460.8 0 
L 0 0 
z
" style="fill: #ffffff"/>
  </g>
  <g id="axes_1">
   <g id="patch_2">
    <path d="M 57.6 307.584 
L 414.72 307.584 
L 414.72 41.472 
L 57.6 41.472 
z
" style="fill: #ffffff"/>
   </g>
   <g id="matplotlib.axis_1">
    <g id="xtick_1">
     <g id="line2d_1">
      <path d="M 71.490061 307.584 
L 71.490061 41.472 
" clip-path="url(#pd2a1044b92)" style="fill: none; stroke: #b0b0b0; stroke-width: 0.8; stroke-linecap: square"/>
     </g>
     <g id="line2d_2">
      <defs>
       <path id="mc2fa456c20" d="M 0 0 
L 0 3.5 
" style="stroke: #000000; stroke-width: 0.8"/>
      </defs>
      <g>
       <use xlink:href="#mc2fa456c20" x="71.490061" y="307.584" style="stroke: #000000; stroke-width: 0.8"/>
      </g>
     </g>
     <g id="text_1">
      <!-- 5.0 -->
      <g transform="translate(63.538498 322.182437) scale(0.1 -0.1)">
       <defs>
        <path id="DejaVuSans-35" d="M 691 4666 
L 3169 4666 
L 3169 4134 
L 1269 4134 
L 1269 2991 
Q 1406 3038 1543 3061 
Q 1681 3084 1819 3084 
Q 2600 3084 3056 2656 
Q 3513 2228 3513 1497 
Q 3513 744 3044 326 
Q 2575 -91 1722 -91 
Q 1428 -91 1123 -41 
Q 819 9 494 109 
L 494 744 
Q 775 591 1075 516 
Q 1375 441 1709 441 
Q 2250 441 2565 725 
Q 2881 1009 2881 1497 
Q 2881 1984 2565 2268 
Q 2250 2553 1709 2553 
Q 1456 2553 1204 2497 
Q 953 2441 691 2322 
L 691 4666 
z
" transform="scale(0.015625)"/>
        <path id="DejaVuSans-2e" d="M 684 794 
L 1344 794 
L 1344 0 
L 684 0 
L 684 794 
z
" transform="scale(0.015625)"/>
        <path id="DejaVuSans-30" d="M 2034 4250 
Q 1547 4250 1301 3770 
Q 1056 3291 1056 2328 
Q 1056 1369 1301 889 
Q 1547 409 2034 409 
Q 2525 409 2770 889 
Q 3016 1369 3016 2328 
Q 3016 3291 2770 3770 
Q 2525 4250 2034 4250 
z
M 2034 4750 
Q 2819 4750 3233 4129 
Q 3647 3509 3647 2328 
Q 3647 1150 3233 529 
Q 2819 -91 2034 -91 
Q 1250 -91 836 529 
Q 422 1150 422 2328 
Q 422 3509 836 4129 
Q 1250 4750 2034 4750 
z
" transform="scale(0.015625)"/>
       </defs>
       <use xlink:href="#DejaVuSans-35"/>
       <use xlink:href="#DejaVuSans-2e" x="63.623047"/>
       <use xlink:href="#DejaVuSans-30" x="95.410156"/>
      </g>
     </g>
    </g>
    <g id="xtick_2">
     <g id="line2d_3">
      <path d="M 120.295615 307.584 
L 120.295615 41.472 
" clip-path="url(#pd2a1044b92)" style="fill: none; stroke: #b0b0b0; stroke-width: 0.8; stroke-linecap: square"/>
     </g>
     <g id="line2d_4">
      <g>
       <use xlink:href="#mc2fa456c20" x="120.295615" y="307.584" style="stroke: #000000; stroke-width: 0.8"/>
      </g>
     </g>
     <g id="text_2">
      <!-- 7.5 -->
      <g transform="translate(112.344052 322.182437) scale(0.1 -0.1)">
       <defs>
        <path id="DejaVuSans-37" d="M 525 4666 
L 3525 4666 
L 3525 4397 
L 1831 0 
L 1172 0 
L 2766 4134 
L 525 4134 
L 525 4666 
z
" transform="scale(0.015625)"/>
       </defs>
       <use xlink:href="#DejaVuSans-37"/>
       <use xlink:href="#DejaVuSans-2e" x="63.623047"/>
       <use xlink:href="#DejaVuSans-35" x="95.410156"/>
      </g>
     </g>
    </g>
    <g id="xtick_3">
     <g id="line2d_5">
      <path d="M 169.101169 307.584 
L 169.101169 41.472 
" clip-path="url(#pd2a1044b92)" style="fill: none; stroke: #b0b0b0; stroke-width: 0.8; stroke-linecap: square"/>
     </g>
     <g id="line2d_6">
      <g>
       <use xlink:href="#mc2fa456c20" x="169.101169" y="307.584" style="stroke: #000000; stroke-width: 0.8"/>
      </g>
     </g>
     <g id="text_3">
      <!-- 10.0 -->
      <g transform="translate(157.968356 322.182437) scale(0.1 -0.1)">
       <defs>
        <path id="DejaVuSans-31" d="M 794 531 
L 1825 531 
L 1825 4091 
L 703 3866 
L 703 4441 
L 1819 4666 
L 2450 4666 
L 2450 531 
L 3481 531 
L 3481 0 
L 794 0 
L 794 531 
z
" transform="scale(0.015625)"/>
       </defs>
       <use xlink:href="#DejaVuSans-31"/>
       <use xlink:href="#DejaVuSans-30" x="63.623047"/>
       <use xlink:href="#DejaVuSans-2e" x="127.246094"/>
       <use xlink:href="#DejaVuSans-30" x="159.033203"/>
      </g>
     </g>
    </g>
    <g id="xtick_4">
     <g id="line2d_7">
      <path d="M 217.906723 307.584 
L 217.906723 41.472 
" clip-path="url(#pd2a1044b92)" style="fill: none; stroke: #b0b0b0; stroke-width: 0.8; stroke-linecap: square"/>
     </g>
     <g id="line2d_8">
      <g>
       <use xlink:href="#mc2fa456c20" x="217.906723" y="307.584" style="stroke: #000000; stroke-width: 0.8"/>
      </g>
     </g>
     <g id="text_4">
      <!-- 12.5 -->
      <g transform="translate(206.77391 322.182437) scale(0.1 -0.1)">
       <defs>
        <path id="DejaVuSans-32" d="M 1228 531 
L 3431 531 
L 3431 0 
L 469 0 
L 469 531 
Q 828 903 1448 1529 
Q 2069 2156 2228 2338 
Q 2531 2678 2651 2914 
Q 2772 3150 2772 3378 
Q 2772 3750 2511 3984 
Q 2250 4219 1831 4219 
Q 1534 4219 1204 4116 
Q 875 4013 500 3803 
L 500 4441 
Q 881 4594 1212 4672 
Q 1544 4750 1819 4750 
Q 2544 4750 2975 4387 
Q 3406 4025 3406 3419 
Q 3406 3131 3298 2873 
Q 3191 2616 2906 2266 
Q 2828 2175 2409 1742 
Q 1991 1309 1228 531 
z
" transform="scale(0.015625)"/>
       </defs>
       <use xlink:href="#DejaVuSans-31"/>
       <use xlink:href="#DejaVuSans-32" x="63.623047"/>
       <use xlink:href="#DejaVuSans-2e" x="127.246094"/>
       <use xlink:href="#DejaVuSans-35" x="159.033203"/>
      </g>
     </g>
    </g>
    <g id="xtick_5">
     <g id="line2d_9">
      <path d="M 266.712277 307.584 
L 266.712277 41.472 
" clip-path="url(#pd2a1044b92)" style="fill: none; stroke: #b0b0b0; stroke-width: 0.8; stroke-linecap: square"/>
     </g>
     <g id="line2d_10">
      <g>
       <use xlink:href="#mc2fa456c20" x="266.712277" y="307.584" style="stroke: #000000; stroke-width: 0.8"/>
      </g>
     </g>
     <g id="text_5">
      <!-- 15.0 -->
      <g transform="translate(255.579464 322.182437) scale(0.1 -0.1)">
       <use xlink:href="#DejaVuSans-31"/>
       <use xlink:href="#DejaVuSans-35" x="63.623047"/>
       <use xlink:href="#DejaVuSans-2e" x="127.246094"/>
       <use xlink:href="#DejaVuSans-30" x="159.033203"/>
      </g>
     </g>
    </g>
    <g id="xtick_6">
     <g id="line2d_11">
      <path d="M 315.517831 307.584 
L 315.517831 41.472 
" clip-path="url(#pd2a1044b92)" style="fill: none; stroke: #b0b0b0; stroke-width: 0.8; stroke-linecap: square"/>
     </g>
     <g id="line2d_12">
      <g>
       <use xlink:href="#mc2fa456c20" x="315.517831" y="307.584" style="stroke: #000000; stroke-width: 0.8"/>
      </g>
     </g>
     <g id="text_6">
      <!-- 17.5 -->
      <g transform="translate(304.385018 322.182437) scale(0.1 -0.1)">
       <use xlink:href="#DejaVuSans-31"/>
       <use xlink:href="#DejaVuSans-37" x="63.623047"/>
       <use xlink:href="#DejaVuSans-2e" x="127.246094"/>
       <use xlink:href="#DejaVuSans-35" x="159.033203"/>
      </g>
     </g>
    </g>
    <g id="xtick_7">
     <g id="line2d_13">
      <path d="M 364.323385 307.584 
L 364.323385 41.472 
" clip-path="url(#pd2a1044b92)" style="fill: none; stroke: #b0b0b0; stroke-width: 0.8; stroke-linecap: square"/>
     </g>
     <g id="line2d_14">
      <g>
       <use xlink:href="#mc2fa456c20" x="364.323385" y="307.584" style="stroke: #000000; stroke-width: 0.8"/>
      </g>
     </g>
     <g id="text_7">
      <!-- 20.0 -->
      <g transform="translate(353.190572 322.182437) scale(0.1 -0.1)">
       <use xlink:href="#DejaVuSans-32"/>
       <use xlink:href="#DejaVuSans-30" x="63.623047"/>
       <use xlink:href="#DejaVuSans-2e" x="127.246094"/>
       <use xlink:href="#DejaVuSans-30" x="159.033203"/>
      </g>
     </g>
    </g>
    <g id="xtick_8">
     <g id="line2d_15">
      <path d="M 413.128939 307.584 
L 413.128939 41.472 
" clip-path="url(#pd2a1044b92)" style="fill: none; stroke: #b0b0b0; stroke-width: 0.8; stroke-linecap: square"/>
     </g>
     <g id="line2d_16">
      <g>
       <use xlink:href="#mc2fa456c20" x="413.128939" y="307.584" style="stroke: #000000; stroke-width: 0.8"/>
      </g>
     </g>
     <g id="text_8">
      <!-- 22.5 -->
      <g transform="translate(401.996126 322.182437) scale(0.1 -0.1)">
       <use xlink:href="#DejaVuSans-32"/>
       <use xlink:href="#DejaVuSans-32" x="63.623047"/>
       <use xlink:href="#DejaVuSans-2e" x="127.246094"/>
       <use xlink:href="#DejaVuSans-35" x="159.033203"/>
      </g>
     </g>
    </g>
    <g id="text_9">
     <!-- $t\,/\, \mathrm{ms}$ -->
     <g transform="translate(223.41 335.860562) scale(0.1 -0.1)">
      <defs>
       <path id="DejaVuSans-Oblique-74" d="M 2706 3500 
L 2619 3053 
L 1472 3053 
L 1100 1153 
Q 1081 1047 1072 975 
Q 1063 903 1063 863 
Q 1063 663 1183 572 
Q 1303 481 1569 481 
L 2150 481 
L 2053 0 
L 1503 0 
Q 991 0 739 200 
Q 488 400 488 806 
Q 488 878 497 964 
Q 506 1050 525 1153 
L 897 3053 
L 409 3053 
L 500 3500 
L 978 3500 
L 1172 4494 
L 1747 4494 
L 1556 3500 
L 2706 3500 
z
" transform="scale(0.015625)"/>
       <path id="DejaVuSans-2f" d="M 1625 4666 
L 2156 4666 
L 531 -594 
L 0 -594 
L 1625 4666 
z
" transform="scale(0.015625)"/>
       <path id="DejaVuSans-6d" d="M 3328 2828 
Q 3544 3216 3844 3400 
Q 4144 3584 4550 3584 
Q 5097 3584 5394 3201 
Q 5691 2819 5691 2113 
L 5691 0 
L 5113 0 
L 5113 2094 
Q 5113 2597 4934 2840 
Q 4756 3084 4391 3084 
Q 3944 3084 3684 2787 
Q 3425 2491 3425 1978 
L 3425 0 
L 2847 0 
L 2847 2094 
Q 2847 2600 2669 2842 
Q 2491 3084 2119 3084 
Q 1678 3084 1418 2786 
Q 1159 2488 1159 1978 
L 1159 0 
L 581 0 
L 581 3500 
L 1159 3500 
L 1159 2956 
Q 1356 3278 1631 3431 
Q 1906 3584 2284 3584 
Q 2666 3584 2933 3390 
Q 3200 3197 3328 2828 
z
" transform="scale(0.015625)"/>
       <path id="DejaVuSans-73" d="M 2834 3397 
L 2834 2853 
Q 2591 2978 2328 3040 
Q 2066 3103 1784 3103 
Q 1356 3103 1142 2972 
Q 928 2841 928 2578 
Q 928 2378 1081 2264 
Q 1234 2150 1697 2047 
L 1894 2003 
Q 2506 1872 2764 1633 
Q 3022 1394 3022 966 
Q 3022 478 2636 193 
Q 2250 -91 1575 -91 
Q 1294 -91 989 -36 
Q 684 19 347 128 
L 347 722 
Q 666 556 975 473 
Q 1284 391 1588 391 
Q 1994 391 2212 530 
Q 2431 669 2431 922 
Q 2431 1156 2273 1281 
Q 2116 1406 1581 1522 
L 1381 1569 
Q 847 1681 609 1914 
Q 372 2147 372 2553 
Q 372 3047 722 3315 
Q 1072 3584 1716 3584 
Q 2034 3584 2315 3537 
Q 2597 3491 2834 3397 
z
" transform="scale(0.015625)"/>
      </defs>
      <use xlink:href="#DejaVuSans-Oblique-74" transform="translate(0 0.09375)"/>
      <use xlink:href="#DejaVuSans-2f" transform="translate(55.444661 0.09375)"/>
      <use xlink:href="#DejaVuSans-6d" transform="translate(105.371743 0.09375)"/>
      <use xlink:href="#DejaVuSans-73" transform="translate(202.783853 0.09375)"/>
     </g>
    </g>
   </g>
   <g id="matplotlib.axis_2">
    <g id="ytick_1">
     <g id="line2d_17">
      <path d="M 57.6 284.491636 
L 414.72 284.491636 
" clip-path="url(#pd2a1044b92)" style="fill: none; stroke: #b0b0b0; stroke-width: 0.8; stroke-linecap: square"/>
     </g>
     <g id="line2d_18">
      <defs>
       <path id="m93ea1ef1f3" d="M 0 0 
L -3.5 0 
" style="stroke: #000000; stroke-width: 0.8"/>
      </defs>
      <g>
       <use xlink:href="#m93ea1ef1f3" x="57.6" y="284.491636" style="stroke: #000000; stroke-width: 0.8"/>
      </g>
     </g>
     <g id="text_10">
      <!-- 2.3 -->
      <g transform="translate(34.696875 288.290855) scale(0.1 -0.1)">
       <defs>
        <path id="DejaVuSans-33" d="M 2597 2516 
Q 3050 2419 3304 2112 
Q 3559 1806 3559 1356 
Q 3559 666 3084 287 
Q 2609 -91 1734 -91 
Q 1441 -91 1130 -33 
Q 819 25 488 141 
L 488 750 
Q 750 597 1062 519 
Q 1375 441 1716 441 
Q 2309 441 2620 675 
Q 2931 909 2931 1356 
Q 2931 1769 2642 2001 
Q 2353 2234 1838 2234 
L 1294 2234 
L 1294 2753 
L 1863 2753 
Q 2328 2753 2575 2939 
Q 2822 3125 2822 3475 
Q 2822 3834 2567 4026 
Q 2313 4219 1838 4219 
Q 1578 4219 1281 4162 
Q 984 4106 628 3988 
L 628 4550 
Q 988 4650 1302 4700 
Q 1616 4750 1894 4750 
Q 2613 4750 3031 4423 
Q 3450 4097 3450 3541 
Q 3450 3153 3228 2886 
Q 3006 2619 2597 2516 
z
" transform="scale(0.015625)"/>
       </defs>
       <use xlink:href="#DejaVuSans-32"/>
       <use xlink:href="#DejaVuSans-2e" x="63.623047"/>
       <use xlink:href="#DejaVuSans-33" x="95.410156"/>
      </g>
     </g>
    </g>
    <g id="ytick_2">
     <g id="line2d_19">
      <path d="M 57.6 229.509818 
L 414.72 229.509818 
" clip-path="url(#pd2a1044b92)" style="fill: none; stroke: #b0b0b0; stroke-width: 0.8; stroke-linecap: square"/>
     </g>
     <g id="line2d_20">
      <g>
       <use xlink:href="#m93ea1ef1f3" x="57.6" y="229.509818" style="stroke: #000000; stroke-width: 0.8"/>
      </g>
     </g>
     <g id="text_11">
      <!-- 2.4 -->
      <g transform="translate(34.696875 233.309037) scale(0.1 -0.1)">
       <defs>
        <path id="DejaVuSans-34" d="M 2419 4116 
L 825 1625 
L 2419 1625 
L 2419 4116 
z
M 2253 4666 
L 3047 4666 
L 3047 1625 
L 3713 1625 
L 3713 1100 
L 3047 1100 
L 3047 0 
L 2419 0 
L 2419 1100 
L 313 1100 
L 313 1709 
L 2253 4666 
z
" transform="scale(0.015625)"/>
       </defs>
       <use xlink:href="#DejaVuSans-32"/>
       <use xlink:href="#DejaVuSans-2e" x="63.623047"/>
       <use xlink:href="#DejaVuSans-34" x="95.410156"/>
      </g>
     </g>
    </g>
    <g id="ytick_3">
     <g id="line2d_21">
      <path d="M 57.6 174.528 
L 414.72 174.528 
" clip-path="url(#pd2a1044b92)" style="fill: none; stroke: #b0b0b0; stroke-width: 0.8; stroke-linecap: square"/>
     </g>
     <g id="line2d_22">
      <g>
       <use xlink:href="#m93ea1ef1f3" x="57.6" y="174.528" style="stroke: #000000; stroke-width: 0.8"/>
      </g>
     </g>
     <g id="text_12">
      <!-- 2.5 -->
      <g transform="translate(34.696875 178.327219) scale(0.1 -0.1)">
       <use xlink:href="#DejaVuSans-32"/>
       <use xlink:href="#DejaVuSans-2e" x="63.623047"/>
       <use xlink:href="#DejaVuSans-35" x="95.410156"/>
      </g>
     </g>
    </g>
    <g id="ytick_4">
     <g id="line2d_23">
      <path d="M 57.6 119.546182 
L 414.72 119.546182 
" clip-path="url(#pd2a1044b92)" style="fill: none; stroke: #b0b0b0; stroke-width: 0.8; stroke-linecap: square"/>
     </g>
     <g id="line2d_24">
      <g>
       <use xlink:href="#m93ea1ef1f3" x="57.6" y="119.546182" style="stroke: #000000; stroke-width: 0.8"/>
      </g>
     </g>
     <g id="text_13">
      <!-- 2.6 -->
      <g transform="translate(34.696875 123.345401) scale(0.1 -0.1)">
       <defs>
        <path id="DejaVuSans-36" d="M 2113 2584 
Q 1688 2584 1439 2293 
Q 1191 2003 1191 1497 
Q 1191 994 1439 701 
Q 1688 409 2113 409 
Q 2538 409 2786 701 
Q 3034 994 3034 1497 
Q 3034 2003 2786 2293 
Q 2538 2584 2113 2584 
z
M 3366 4563 
L 3366 3988 
Q 3128 4100 2886 4159 
Q 2644 4219 2406 4219 
Q 1781 4219 1451 3797 
Q 1122 3375 1075 2522 
Q 1259 2794 1537 2939 
Q 1816 3084 2150 3084 
Q 2853 3084 3261 2657 
Q 3669 2231 3669 1497 
Q 3669 778 3244 343 
Q 2819 -91 2113 -91 
Q 1303 -91 875 529 
Q 447 1150 447 2328 
Q 447 3434 972 4092 
Q 1497 4750 2381 4750 
Q 2619 4750 2861 4703 
Q 3103 4656 3366 4563 
z
" transform="scale(0.015625)"/>
       </defs>
       <use xlink:href="#DejaVuSans-32"/>
       <use xlink:href="#DejaVuSans-2e" x="63.623047"/>
       <use xlink:href="#DejaVuSans-36" x="95.410156"/>
      </g>
     </g>
    </g>
    <g id="ytick_5">
     <g id="line2d_25">
      <path d="M 57.6 64.564364 
L 414.72 64.564364 
" clip-path="url(#pd2a1044b92)" style="fill: none; stroke: #b0b0b0; stroke-width: 0.8; stroke-linecap: square"/>
     </g>
     <g id="line2d_26">
      <g>
       <use xlink:href="#m93ea1ef1f3" x="57.6" y="64.564364" style="stroke: #000000; stroke-width: 0.8"/>
      </g>
     </g>
     <g id="text_14">
      <!-- 2.7 -->
      <g transform="translate(34.696875 68.363582) scale(0.1 -0.1)">
       <use xlink:href="#DejaVuSans-32"/>
       <use xlink:href="#DejaVuSans-2e" x="63.623047"/>
       <use xlink:href="#DejaVuSans-37" x="95.410156"/>
      </g>
     </g>
    </g>
    <g id="text_15">
     <!-- $U_\mathrm{Spule} / \mathrm{V}$ -->
     <g transform="translate(27.596875 193.228) rotate(-90) scale(0.1 -0.1)">
      <defs>
       <path id="DejaVuSans-Oblique-55" d="M 991 4666 
L 1625 4666 
L 1075 1831 
Q 1041 1641 1027 1517 
Q 1013 1394 1013 1300 
Q 1013 869 1253 645 
Q 1494 422 1959 422 
Q 2563 422 2898 753 
Q 3234 1084 3378 1831 
L 3928 4666 
L 4563 4666 
L 4000 1753 
Q 3816 809 3300 359 
Q 2784 -91 1888 -91 
Q 1188 -91 780 261 
Q 372 613 372 1216 
Q 372 1325 387 1461 
Q 403 1597 434 1753 
L 991 4666 
z
" transform="scale(0.015625)"/>
       <path id="DejaVuSans-53" d="M 3425 4513 
L 3425 3897 
Q 3066 4069 2747 4153 
Q 2428 4238 2131 4238 
Q 1616 4238 1336 4038 
Q 1056 3838 1056 3469 
Q 1056 3159 1242 3001 
Q 1428 2844 1947 2747 
L 2328 2669 
Q 3034 2534 3370 2195 
Q 3706 1856 3706 1288 
Q 3706 609 3251 259 
Q 2797 -91 1919 -91 
Q 1588 -91 1214 -16 
Q 841 59 441 206 
L 441 856 
Q 825 641 1194 531 
Q 1563 422 1919 422 
Q 2459 422 2753 634 
Q 3047 847 3047 1241 
Q 3047 1584 2836 1778 
Q 2625 1972 2144 2069 
L 1759 2144 
Q 1053 2284 737 2584 
Q 422 2884 422 3419 
Q 422 4038 858 4394 
Q 1294 4750 2059 4750 
Q 2388 4750 2728 4690 
Q 3069 4631 3425 4513 
z
" transform="scale(0.015625)"/>
       <path id="DejaVuSans-70" d="M 1159 525 
L 1159 -1331 
L 581 -1331 
L 581 3500 
L 1159 3500 
L 1159 2969 
Q 1341 3281 1617 3432 
Q 1894 3584 2278 3584 
Q 2916 3584 3314 3078 
Q 3713 2572 3713 1747 
Q 3713 922 3314 415 
Q 2916 -91 2278 -91 
Q 1894 -91 1617 61 
Q 1341 213 1159 525 
z
M 3116 1747 
Q 3116 2381 2855 2742 
Q 2594 3103 2138 3103 
Q 1681 3103 1420 2742 
Q 1159 2381 1159 1747 
Q 1159 1113 1420 752 
Q 1681 391 2138 391 
Q 2594 391 2855 752 
Q 3116 1113 3116 1747 
z
" transform="scale(0.015625)"/>
       <path id="DejaVuSans-75" d="M 544 1381 
L 544 3500 
L 1119 3500 
L 1119 1403 
Q 1119 906 1312 657 
Q 1506 409 1894 409 
Q 2359 409 2629 706 
Q 2900 1003 2900 1516 
L 2900 3500 
L 3475 3500 
L 3475 0 
L 2900 0 
L 2900 538 
Q 2691 219 2414 64 
Q 2138 -91 1772 -91 
Q 1169 -91 856 284 
Q 544 659 544 1381 
z
M 1991 3584 
L 1991 3584 
z
" transform="scale(0.015625)"/>
       <path id="DejaVuSans-6c" d="M 603 4863 
L 1178 4863 
L 1178 0 
L 603 0 
L 603 4863 
z
" transform="scale(0.015625)"/>
       <path id="DejaVuSans-65" d="M 3597 1894 
L 3597 1613 
L 953 1613 
Q 991 1019 1311 708 
Q 1631 397 2203 397 
Q 2534 397 2845 478 
Q 3156 559 3463 722 
L 3463 178 
Q 3153 47 2828 -22 
Q 2503 -91 2169 -91 
Q 1331 -91 842 396 
Q 353 884 353 1716 
Q 353 2575 817 3079 
Q 1281 3584 2069 3584 
Q 2775 3584 3186 3129 
Q 3597 2675 3597 1894 
z
M 3022 2063 
Q 3016 2534 2758 2815 
Q 2500 3097 2075 3097 
Q 1594 3097 1305 2825 
Q 1016 2553 972 2059 
L 3022 2063 
z
" transform="scale(0.015625)"/>
       <path id="DejaVuSans-56" d="M 1831 0 
L 50 4666 
L 709 4666 
L 2188 738 
L 3669 4666 
L 4325 4666 
L 2547 0 
L 1831 0 
z
" transform="scale(0.015625)"/>
      </defs>
      <use xlink:href="#DejaVuSans-Oblique-55" transform="translate(0 0.09375)"/>
      <use xlink:href="#DejaVuSans-53" transform="translate(73.193359 -16.3125) scale(0.7)"/>
      <use xlink:href="#DejaVuSans-70" transform="translate(117.626953 -16.3125) scale(0.7)"/>
      <use xlink:href="#DejaVuSans-75" transform="translate(162.060547 -16.3125) scale(0.7)"/>
      <use xlink:href="#DejaVuSans-6c" transform="translate(206.425781 -16.3125) scale(0.7)"/>
      <use xlink:href="#DejaVuSans-65" transform="translate(225.874023 -16.3125) scale(0.7)"/>
      <use xlink:href="#DejaVuSans-2f" transform="translate(271.674805 0.09375)"/>
      <use xlink:href="#DejaVuSans-56" transform="translate(305.366211 0.09375)"/>
     </g>
    </g>
   </g>
   <g id="line2d_27">
    <path d="M 73.832727 53.568 
L 74.418394 53.568 
L 74.613616 57.966545 
L 74.808838 53.568 
L 75.004061 57.966545 
L 75.589727 57.966545 
L 75.784949 62.365091 
L 76.175394 62.365091 
L 76.370616 66.763636 
L 76.565838 62.365091 
L 76.956283 71.162182 
L 77.541949 71.162182 
L 77.737172 75.560727 
L 78.51806 75.560727 
L 78.713283 79.959273 
L 78.908505 75.560727 
L 79.103727 79.959273 
L 79.298949 79.959273 
L 79.494172 84.357818 
L 80.27506 84.357818 
L 80.470283 88.756364 
L 81.055949 88.756364 
L 81.251171 93.154909 
L 81.446394 88.756364 
L 81.641616 93.154909 
L 81.836838 93.154909 
L 82.03206 97.553455 
L 82.812949 97.553455 
L 83.008171 101.952 
L 84.374727 101.952 
L 84.765171 110.749091 
L 84.960394 106.350545 
L 85.350838 106.350545 
L 85.54606 110.749091 
L 86.131727 110.749091 
L 86.326949 115.147636 
L 87.30306 115.147636 
L 87.498282 119.546182 
L 88.864838 119.546182 
L 89.06006 123.944727 
L 89.255282 123.944727 
L 89.450505 119.546182 
L 89.645727 123.944727 
L 89.840949 123.944727 
L 90.036171 128.343273 
L 90.231393 123.944727 
L 90.426616 123.944727 
L 90.621838 128.343273 
L 90.81706 123.944727 
L 91.012282 128.343273 
L 91.988393 128.343273 
L 92.183616 132.741818 
L 92.378838 132.741818 
L 92.57406 128.343273 
L 92.769282 137.140364 
L 92.964504 132.741818 
L 93.159727 137.140364 
L 93.354949 137.140364 
L 93.550171 132.741818 
L 93.745393 132.741818 
L 93.940616 137.140364 
L 94.526282 137.140364 
L 94.721504 141.538909 
L 94.916727 141.538909 
L 95.111949 137.140364 
L 95.307171 137.140364 
L 95.502393 141.538909 
L 95.892838 141.538909 
L 96.08806 145.937455 
L 98.040282 145.937455 
L 98.235504 150.336 
L 99.211615 150.336 
L 99.406838 154.734545 
L 99.60206 150.336 
L 99.797282 154.734545 
L 99.992504 150.336 
L 100.187726 154.734545 
L 100.578171 154.734545 
L 100.773393 159.133091 
L 100.968615 154.734545 
L 101.163838 159.133091 
L 101.749504 159.133091 
L 101.944726 154.734545 
L 102.139949 159.133091 
L 103.506504 159.133091 
L 103.701726 163.531636 
L 103.896949 159.133091 
L 104.092171 163.531636 
L 105.653949 163.531636 
L 105.849171 167.930182 
L 106.239615 167.930182 
L 106.434837 163.531636 
L 106.63006 167.930182 
L 107.996615 167.930182 
L 108.191837 172.328727 
L 109.753615 172.328727 
L 109.948837 176.727273 
L 110.144059 176.727273 
L 110.339282 172.328727 
L 110.534504 176.727273 
L 111.120171 176.727273 
L 111.315393 181.125818 
L 111.510615 176.727273 
L 111.705837 181.125818 
L 111.901059 176.727273 
L 112.096282 181.125818 
L 113.853282 181.125818 
L 114.048504 185.524364 
L 114.243726 181.125818 
L 114.438948 185.524364 
L 114.63417 181.125818 
L 114.829393 185.524364 
L 115.805504 185.524364 
L 116.000726 189.922909 
L 116.195948 181.125818 
L 116.39117 189.922909 
L 116.586393 185.524364 
L 116.976837 185.524364 
L 117.172059 189.922909 
L 117.367281 185.524364 
L 117.562504 185.524364 
L 117.757726 189.922909 
L 119.124281 189.922909 
L 119.319504 194.321455 
L 119.90517 194.321455 
L 120.100392 189.922909 
L 120.686059 189.922909 
L 120.881281 194.321455 
L 121.076504 189.922909 
L 121.271726 194.321455 
L 121.466948 194.321455 
L 121.66217 198.72 
L 121.857392 194.321455 
L 122.443059 194.321455 
L 122.638281 198.72 
L 122.833504 194.321455 
L 123.028726 198.72 
L 124.200059 198.72 
L 124.395281 203.118545 
L 124.590503 198.72 
L 124.785726 198.72 
L 124.980948 203.118545 
L 125.17617 198.72 
L 125.371392 203.118545 
L 125.566615 198.72 
L 125.761837 203.118545 
L 126.93317 203.118545 
L 127.128392 198.72 
L 127.323614 203.118545 
L 127.518837 203.118545 
L 127.714059 207.517091 
L 128.299726 207.517091 
L 128.494948 203.118545 
L 128.69017 207.517091 
L 128.885392 207.517091 
L 129.080614 203.118545 
L 129.275837 207.517091 
L 130.251948 207.517091 
L 130.44717 211.915636 
L 130.642392 207.517091 
L 130.837614 207.517091 
L 131.032837 211.915636 
L 132.789837 211.915636 
L 132.985059 216.314182 
L 133.180281 211.915636 
L 133.96117 211.915636 
L 134.156392 216.314182 
L 137.279948 216.314182 
L 137.47517 220.712727 
L 137.670392 216.314182 
L 137.865614 220.712727 
L 138.256059 220.712727 
L 138.451281 216.314182 
L 138.646503 220.712727 
L 138.841725 220.712727 
L 139.036947 216.314182 
L 139.23217 216.314182 
L 139.427392 220.712727 
L 140.598725 220.712727 
L 140.793947 225.111273 
L 141.184392 225.111273 
L 141.379614 220.712727 
L 141.574836 225.111273 
L 141.770058 220.712727 
L 141.965281 225.111273 
L 143.527058 225.111273 
L 143.722281 229.509818 
L 143.917503 225.111273 
L 144.112725 225.111273 
L 144.307947 229.509818 
L 144.50317 225.111273 
L 144.698392 225.111273 
L 144.893614 229.509818 
L 145.088836 225.111273 
L 145.284058 225.111273 
L 145.479281 229.509818 
L 147.626725 229.509818 
L 147.821947 233.908364 
L 148.017169 229.509818 
L 148.212392 233.908364 
L 148.407614 233.908364 
L 148.602836 229.509818 
L 148.99328 229.509818 
L 149.188503 233.908364 
L 151.531169 233.908364 
L 151.726392 238.306909 
L 151.921614 233.908364 
L 152.50728 233.908364 
L 152.702503 238.306909 
L 152.897725 233.908364 
L 153.288169 233.908364 
L 153.483391 238.306909 
L 153.678614 233.908364 
L 153.873836 238.306909 
L 154.459503 238.306909 
L 154.654725 233.908364 
L 154.849947 233.908364 
L 155.045169 238.306909 
L 155.435614 238.306909 
L 155.630836 233.908364 
L 155.826058 238.306909 
L 156.02128 238.306909 
L 156.216502 242.705455 
L 156.606947 242.705455 
L 156.997391 233.908364 
L 157.192614 238.306909 
L 157.387836 238.306909 
L 157.583058 242.705455 
L 157.77828 238.306909 
L 157.973502 242.705455 
L 160.706613 242.705455 
L 160.901836 233.908364 
L 161.097058 242.705455 
L 164.220613 242.705455 
L 164.415836 247.104 
L 165.196724 247.104 
L 165.391947 242.705455 
L 165.587169 247.104 
L 166.172836 247.104 
L 166.368058 251.502545 
L 166.56328 247.104 
L 167.148947 247.104 
L 167.344169 251.502545 
L 167.539391 251.502545 
L 167.734613 247.104 
L 167.929835 247.104 
L 168.125058 251.502545 
L 168.32028 251.502545 
L 168.515502 247.104 
L 168.710724 251.502545 
L 168.905947 247.104 
L 169.101169 247.104 
L 169.296391 251.502545 
L 170.272502 251.502545 
L 170.467724 247.104 
L 170.662946 251.502545 
L 171.639058 251.502545 
L 171.83428 247.104 
L 172.029502 251.502545 
L 173.396058 251.502545 
L 173.59128 255.901091 
L 173.786502 251.502545 
L 173.981724 255.901091 
L 174.762613 255.901091 
L 174.957835 251.502545 
L 175.153057 255.901091 
L 175.34828 255.901091 
L 175.543502 251.502545 
L 175.738724 255.901091 
L 175.933946 251.502545 
L 176.129169 255.901091 
L 176.714835 255.901091 
L 176.910057 251.502545 
L 177.10528 255.901091 
L 177.495724 255.901091 
L 177.690946 251.502545 
L 177.886168 255.901091 
L 178.471835 255.901091 
L 178.667057 260.299636 
L 178.86228 255.901091 
L 179.057502 255.901091 
L 179.252724 260.299636 
L 179.447946 260.299636 
L 179.643168 255.901091 
L 179.838391 255.901091 
L 180.033613 260.299636 
L 180.424057 260.299636 
L 180.61928 255.901091 
L 180.814502 255.901091 
L 181.009724 260.299636 
L 181.204946 255.901091 
L 181.400168 260.299636 
L 181.790613 260.299636 
L 181.985835 255.901091 
L 182.181057 260.299636 
L 182.766724 260.299636 
L 182.961946 255.901091 
L 183.157168 260.299636 
L 183.547613 260.299636 
L 183.742835 255.901091 
L 183.938057 260.299636 
L 184.133279 255.901091 
L 184.328502 260.299636 
L 187.842502 260.299636 
L 188.037724 264.698182 
L 188.232946 260.299636 
L 188.428168 260.299636 
L 188.62339 264.698182 
L 188.818613 260.299636 
L 189.013835 260.299636 
L 189.209057 264.698182 
L 189.599501 264.698182 
L 189.794724 260.299636 
L 189.989946 260.299636 
L 190.185168 264.698182 
L 190.575613 264.698182 
L 190.770835 260.299636 
L 190.966057 264.698182 
L 191.161279 264.698182 
L 191.356501 260.299636 
L 191.551724 264.698182 
L 193.699168 264.698182 
L 193.89439 260.299636 
L 194.089612 264.698182 
L 195.260946 264.698182 
L 195.456168 269.096727 
L 195.65139 264.698182 
L 196.041835 264.698182 
L 196.237057 269.096727 
L 196.432279 264.698182 
L 196.822723 264.698182 
L 197.017946 269.096727 
L 197.213168 264.698182 
L 197.40839 269.096727 
L 197.603612 264.698182 
L 197.798835 269.096727 
L 197.994057 264.698182 
L 198.579723 264.698182 
L 198.774946 269.096727 
L 198.970168 264.698182 
L 199.16539 269.096727 
L 199.360612 269.096727 
L 199.555834 264.698182 
L 199.751057 264.698182 
L 199.946279 269.096727 
L 200.141501 269.096727 
L 200.336723 264.698182 
L 200.531946 269.096727 
L 200.727168 269.096727 
L 200.92239 264.698182 
L 201.117612 269.096727 
L 201.312834 264.698182 
L 201.508057 269.096727 
L 201.703279 264.698182 
L 201.898501 269.096727 
L 204.241168 269.096727 
L 204.43639 264.698182 
L 204.826834 273.495273 
L 205.022057 269.096727 
L 205.412501 269.096727 
L 205.607723 273.495273 
L 205.802945 269.096727 
L 206.19339 269.096727 
L 206.388612 264.698182 
L 206.779056 273.495273 
L 206.974279 269.096727 
L 208.340834 269.096727 
L 208.536056 273.495273 
L 208.731279 269.096727 
L 209.512167 269.096727 
L 209.70739 273.495273 
L 210.097834 273.495273 
L 210.293056 269.096727 
L 211.073945 269.096727 
L 211.269167 273.495273 
L 211.659612 273.495273 
L 211.854834 269.096727 
L 212.245279 269.096727 
L 212.440501 273.495273 
L 212.635723 273.495273 
L 212.830945 269.096727 
L 213.026167 273.495273 
L 213.416612 273.495273 
L 213.611834 269.096727 
L 213.807056 273.495273 
L 214.197501 273.495273 
L 214.392723 269.096727 
L 214.587945 273.495273 
L 215.173612 273.495273 
L 215.368834 269.096727 
L 215.564056 277.893818 
L 215.759278 273.495273 
L 215.954501 273.495273 
L 216.149723 269.096727 
L 216.540167 277.893818 
L 216.930612 277.893818 
L 217.125834 273.495273 
L 217.321056 273.495273 
L 217.516278 277.893818 
L 217.711501 273.495273 
L 217.906723 277.893818 
L 218.101945 273.495273 
L 218.882834 273.495273 
L 219.078056 277.893818 
L 219.273278 277.893818 
L 219.468501 273.495273 
L 220.249389 273.495273 
L 220.444612 277.893818 
L 220.639834 273.495273 
L 221.030278 273.495273 
L 221.2255 277.893818 
L 221.420723 273.495273 
L 221.615945 277.893818 
L 221.811167 273.495273 
L 222.201612 273.495273 
L 222.396834 277.893818 
L 222.592056 273.495273 
L 222.787278 277.893818 
L 223.177723 277.893818 
L 223.372945 273.495273 
L 223.568167 277.893818 
L 225.520389 277.893818 
L 225.715611 273.495273 
L 225.910834 277.893818 
L 229.815278 277.893818 
L 230.0105 273.495273 
L 230.400945 282.292364 
L 230.596167 277.893818 
L 231.181833 277.893818 
L 231.377056 273.495273 
L 231.572278 277.893818 
L 234.305389 277.893818 
L 234.500611 282.292364 
L 234.695833 277.893818 
L 234.891056 277.893818 
L 235.086278 282.292364 
L 235.2815 277.893818 
L 235.476722 277.893818 
L 235.671944 282.292364 
L 235.867167 277.893818 
L 236.843278 277.893818 
L 237.0385 282.292364 
L 237.233722 277.893818 
L 237.428944 277.893818 
L 237.624167 282.292364 
L 237.819389 277.893818 
L 238.405055 277.893818 
L 238.600278 282.292364 
L 238.7955 277.893818 
L 238.990722 277.893818 
L 239.185944 282.292364 
L 239.381167 277.893818 
L 240.162055 277.893818 
L 240.357278 282.292364 
L 240.5525 277.893818 
L 240.747722 282.292364 
L 240.942944 277.893818 
L 241.138167 282.292364 
L 241.528611 282.292364 
L 241.723833 277.893818 
L 241.919055 282.292364 
L 242.114278 277.893818 
L 242.3095 282.292364 
L 242.504722 277.893818 
L 242.699944 277.893818 
L 242.895166 282.292364 
L 243.090389 277.893818 
L 243.285611 282.292364 
L 243.480833 277.893818 
L 243.676055 282.292364 
L 243.871278 277.893818 
L 244.0665 282.292364 
L 244.261722 277.893818 
L 244.652166 277.893818 
L 244.847389 282.292364 
L 245.042611 282.292364 
L 245.237833 277.893818 
L 245.433055 282.292364 
L 245.8235 282.292364 
L 246.018722 277.893818 
L 246.213944 277.893818 
L 246.409166 282.292364 
L 246.799611 282.292364 
L 246.994833 277.893818 
L 247.190055 277.893818 
L 247.385277 282.292364 
L 247.5805 277.893818 
L 247.775722 282.292364 
L 248.556611 282.292364 
L 248.751833 277.893818 
L 248.947055 282.292364 
L 249.3375 282.292364 
L 249.532722 277.893818 
L 250.118388 277.893818 
L 250.313611 282.292364 
L 250.704055 282.292364 
L 250.899277 277.893818 
L 251.0945 282.292364 
L 251.289722 282.292364 
L 251.484944 277.893818 
L 251.680166 282.292364 
L 254.022833 282.292364 
L 254.218055 286.690909 
L 254.413277 286.690909 
L 254.608499 282.292364 
L 255.194166 282.292364 
L 255.389388 277.893818 
L 255.584611 282.292364 
L 256.170277 282.292364 
L 256.365499 286.690909 
L 256.560722 282.292364 
L 256.755944 282.292364 
L 256.951166 286.690909 
L 257.146388 286.690909 
L 257.34161 282.292364 
L 257.536833 286.690909 
L 257.732055 286.690909 
L 257.927277 282.292364 
L 258.512944 282.292364 
L 258.708166 286.690909 
L 258.903388 286.690909 
L 259.09861 282.292364 
L 259.293833 286.690909 
L 259.489055 282.292364 
L 259.684277 282.292364 
L 259.879499 286.690909 
L 260.269944 286.690909 
L 260.465166 282.292364 
L 260.660388 286.690909 
L 260.85561 282.292364 
L 261.050833 286.690909 
L 261.831721 286.690909 
L 262.026944 282.292364 
L 262.222166 282.292364 
L 262.417388 286.690909 
L 262.61261 282.292364 
L 262.807833 282.292364 
L 263.003055 286.690909 
L 263.198277 286.690909 
L 263.393499 282.292364 
L 263.588721 282.292364 
L 263.783944 277.893818 
L 263.979166 286.690909 
L 264.564832 286.690909 
L 264.760055 282.292364 
L 264.955277 286.690909 
L 265.150499 286.690909 
L 265.345721 282.292364 
L 265.540944 286.690909 
L 265.931388 286.690909 
L 266.12661 282.292364 
L 266.321832 286.690909 
L 267.493166 286.690909 
L 267.688388 282.292364 
L 267.88361 286.690909 
L 268.274055 286.690909 
L 268.469277 282.292364 
L 268.664499 286.690909 
L 269.054943 286.690909 
L 269.250166 282.292364 
L 269.445388 286.690909 
L 269.64061 286.690909 
L 269.835832 282.292364 
L 270.031055 282.292364 
L 270.226277 286.690909 
L 272.178499 286.690909 
L 272.373721 282.292364 
L 272.568943 286.690909 
L 277.839943 286.690909 
L 278.035165 291.089455 
L 278.230388 286.690909 
L 280.963499 286.690909 
L 281.158721 291.089455 
L 281.353943 286.690909 
L 282.525276 286.690909 
L 282.720499 291.089455 
L 282.915721 286.690909 
L 285.063165 286.690909 
L 285.258387 291.089455 
L 285.45361 291.089455 
L 285.648832 286.690909 
L 288.186721 286.690909 
L 288.381943 291.089455 
L 288.577165 286.690909 
L 288.772387 286.690909 
L 288.967609 291.089455 
L 289.358054 282.292364 
L 289.553276 286.690909 
L 291.115054 286.690909 
L 291.310276 291.089455 
L 291.505498 286.690909 
L 292.676832 286.690909 
L 292.872054 291.089455 
L 293.067276 286.690909 
L 293.45772 286.690909 
L 293.652943 291.089455 
L 293.848165 286.690909 
L 294.043387 286.690909 
L 294.238609 291.089455 
L 294.433832 286.690909 
L 294.629054 291.089455 
L 294.824276 286.690909 
L 295.019498 291.089455 
L 295.21472 291.089455 
L 295.409943 286.690909 
L 295.800387 286.690909 
L 295.995609 291.089455 
L 296.190831 286.690909 
L 296.97172 286.690909 
L 297.166943 291.089455 
L 297.752609 291.089455 
L 297.947831 286.690909 
L 298.143054 291.089455 
L 298.338276 286.690909 
L 298.923942 286.690909 
L 299.119165 291.089455 
L 299.314387 286.690909 
L 300.095276 286.690909 
L 300.290498 291.089455 
L 300.48572 286.690909 
L 300.680942 291.089455 
L 300.876165 286.690909 
L 301.071387 286.690909 
L 301.266609 291.089455 
L 301.461831 286.690909 
L 301.657054 286.690909 
L 301.852276 291.089455 
L 302.24272 291.089455 
L 302.437942 286.690909 
L 303.023609 286.690909 
L 303.218831 291.089455 
L 303.414053 286.690909 
L 303.609276 291.089455 
L 303.804498 291.089455 
L 303.99972 286.690909 
L 304.194942 286.690909 
L 304.390165 291.089455 
L 304.585387 291.089455 
L 304.780609 286.690909 
L 304.975831 286.690909 
L 305.171053 291.089455 
L 305.561498 291.089455 
L 305.75672 286.690909 
L 305.951942 291.089455 
L 306.342387 291.089455 
L 306.537609 286.690909 
L 306.732831 291.089455 
L 306.928053 291.089455 
L 307.123276 286.690909 
L 307.51372 286.690909 
L 307.708942 291.089455 
L 307.904164 291.089455 
L 308.099387 286.690909 
L 308.294609 291.089455 
L 308.489831 291.089455 
L 308.685053 286.690909 
L 309.075498 286.690909 
L 309.27072 291.089455 
L 309.465942 286.690909 
L 310.051609 286.690909 
L 310.246831 291.089455 
L 310.442053 286.690909 
L 311.418164 286.690909 
L 311.613387 291.089455 
L 311.808609 286.690909 
L 312.003831 291.089455 
L 312.199053 291.089455 
L 312.394275 286.690909 
L 312.589498 291.089455 
L 312.78472 286.690909 
L 312.979942 291.089455 
L 313.370386 291.089455 
L 313.565609 286.690909 
L 313.760831 291.089455 
L 313.956053 286.690909 
L 314.151275 291.089455 
L 314.736942 291.089455 
L 314.932164 286.690909 
L 315.127386 291.089455 
L 315.517831 291.089455 
L 315.713053 286.690909 
L 315.908275 291.089455 
L 316.29872 291.089455 
L 316.493942 286.690909 
L 316.689164 291.089455 
L 317.274831 291.089455 
L 317.470053 295.488 
L 317.665275 291.089455 
L 318.05572 291.089455 
L 318.250942 286.690909 
L 318.446164 291.089455 
L 319.227053 291.089455 
L 319.422275 286.690909 
L 320.007942 286.690909 
L 320.203164 291.089455 
L 321.374497 291.089455 
L 321.56972 295.488 
L 321.764942 291.089455 
L 322.741053 291.089455 
L 322.936275 286.690909 
L 323.131497 291.089455 
L 324.693275 291.089455 
L 324.888497 286.690909 
L 325.083719 291.089455 
L 326.645497 291.089455 
L 326.840719 286.690909 
L 327.035942 291.089455 
L 328.597719 291.089455 
L 328.792942 286.690909 
L 328.988164 291.089455 
L 329.183386 291.089455 
L 329.378608 295.488 
L 329.57383 295.488 
L 329.769053 286.690909 
L 329.964275 291.089455 
L 330.159497 286.690909 
L 330.354719 291.089455 
L 330.549942 286.690909 
L 330.745164 291.089455 
L 332.306941 291.089455 
L 332.502164 286.690909 
L 332.697386 291.089455 
L 333.868719 291.089455 
L 334.063941 286.690909 
L 334.454386 295.488 
L 334.649608 291.089455 
L 335.625719 291.089455 
L 335.820941 295.488 
L 336.211386 286.690909 
L 336.406608 295.488 
L 336.60183 291.089455 
L 336.797052 291.089455 
L 336.992275 286.690909 
L 337.187497 291.089455 
L 338.163608 291.089455 
L 338.35883 286.690909 
L 338.554052 291.089455 
L 339.334941 291.089455 
L 339.530163 286.690909 
L 339.725386 291.089455 
L 341.091941 291.089455 
L 341.287163 295.488 
L 341.482386 295.488 
L 341.677608 291.089455 
L 341.87283 291.089455 
L 342.068052 295.488 
L 342.263274 291.089455 
L 342.458497 291.089455 
L 342.653719 295.488 
L 342.848941 291.089455 
L 343.044163 291.089455 
L 343.239386 286.690909 
L 343.434608 291.089455 
L 344.215497 291.089455 
L 344.410719 295.488 
L 344.605941 291.089455 
L 344.996386 291.089455 
L 345.191608 286.690909 
L 345.582052 295.488 
L 345.777274 291.089455 
L 345.972497 295.488 
L 346.753385 295.488 
L 346.948608 291.089455 
L 348.315163 291.089455 
L 348.510385 286.690909 
L 348.90083 295.488 
L 349.096052 291.089455 
L 351.438719 291.089455 
L 351.633941 295.488 
L 351.829163 291.089455 
L 352.024385 295.488 
L 352.219608 291.089455 
L 352.610052 291.089455 
L 352.805274 295.488 
L 353.000496 291.089455 
L 354.757496 291.089455 
L 354.952719 295.488 
L 355.343163 295.488 
L 355.538385 291.089455 
L 357.295385 291.089455 
L 357.490607 295.488 
L 357.68583 291.089455 
L 359.247607 291.089455 
L 359.442829 295.488 
L 359.638052 291.089455 
L 359.833274 291.089455 
L 360.028496 295.488 
L 360.418941 295.488 
L 360.614163 291.089455 
L 361.590274 291.089455 
L 361.785496 286.690909 
L 361.980718 291.089455 
L 362.371163 291.089455 
L 362.566385 295.488 
L 362.761607 295.488 
L 362.956829 291.089455 
L 364.128163 291.089455 
L 364.323385 295.488 
L 364.518607 291.089455 
L 365.104274 291.089455 
L 365.299496 295.488 
L 365.68994 295.488 
L 365.885163 291.089455 
L 366.080385 295.488 
L 366.275607 291.089455 
L 366.666051 291.089455 
L 366.861274 295.488 
L 367.056496 295.488 
L 367.251718 291.089455 
L 369.20394 291.089455 
L 369.399163 295.488 
L 369.594385 291.089455 
L 369.984829 291.089455 
L 370.180051 295.488 
L 370.375274 291.089455 
L 370.570496 295.488 
L 370.765718 291.089455 
L 372.522718 291.089455 
L 372.71794 295.488 
L 372.913162 291.089455 
L 373.108385 295.488 
L 373.303607 291.089455 
L 373.498829 295.488 
L 373.694051 291.089455 
L 374.47494 291.089455 
L 374.670162 295.488 
L 374.865385 291.089455 
L 375.060607 291.089455 
L 375.255829 295.488 
L 375.451051 291.089455 
L 376.036718 291.089455 
L 376.23194 295.488 
L 376.427162 295.488 
L 376.622385 291.089455 
L 377.208051 291.089455 
L 377.403273 295.488 
L 377.598496 291.089455 
L 378.184162 291.089455 
L 378.379384 295.488 
L 378.574607 291.089455 
L 378.965051 291.089455 
L 379.160273 295.488 
L 379.550718 295.488 
L 379.74594 291.089455 
L 379.941162 295.488 
L 380.136384 295.488 
L 380.331607 291.089455 
L 380.526829 295.488 
L 380.722051 291.089455 
L 380.917273 295.488 
L 381.112495 291.089455 
L 381.50294 291.089455 
L 381.698162 295.488 
L 381.893384 291.089455 
L 383.064718 291.089455 
L 383.25994 295.488 
L 383.455162 291.089455 
L 383.650384 295.488 
L 383.845607 291.089455 
L 384.236051 291.089455 
L 384.431273 295.488 
L 384.626495 291.089455 
L 385.212162 291.089455 
L 385.407384 295.488 
L 385.602606 295.488 
L 385.797829 291.089455 
L 385.993051 295.488 
L 386.383495 295.488 
L 386.578718 291.089455 
L 387.164384 291.089455 
L 387.359606 295.488 
L 387.554829 291.089455 
L 387.750051 291.089455 
L 387.945273 295.488 
L 388.335717 295.488 
L 388.53094 291.089455 
L 388.921384 291.089455 
L 389.116606 295.488 
L 389.311829 291.089455 
L 389.702273 291.089455 
L 389.897495 295.488 
L 390.092717 291.089455 
L 390.28794 295.488 
L 390.483162 291.089455 
L 390.678384 295.488 
L 390.873606 291.089455 
L 391.068829 291.089455 
L 391.264051 295.488 
L 391.459273 291.089455 
L 391.849717 291.089455 
L 392.04494 295.488 
L 392.435384 295.488 
L 392.630606 291.089455 
L 392.825828 295.488 
L 393.021051 286.690909 
L 393.216273 295.488 
L 393.411495 291.089455 
L 393.606717 295.488 
L 393.80194 291.089455 
L 393.997162 295.488 
L 394.192384 291.089455 
L 394.387606 295.488 
L 394.973273 295.488 
L 395.168495 291.089455 
L 395.558939 291.089455 
L 395.754162 295.488 
L 396.144606 295.488 
L 396.339828 291.089455 
L 396.535051 295.488 
L 396.730273 291.089455 
L 396.925495 295.488 
L 397.120717 291.089455 
L 397.315939 295.488 
L 397.511162 291.089455 
L 397.706384 295.488 
L 398.487273 295.488 
L 398.487273 295.488 
" clip-path="url(#pd2a1044b92)" style="fill: none; stroke: #000000; stroke-width: 1.5; stroke-linecap: square"/>
   </g>
   <g id="line2d_28">
    <path d="M 73.832727 64.210996 
L 77.541949 78.777977 
L 81.251171 92.416115 
L 84.960394 105.184638 
L 88.669616 117.138995 
L 92.378838 128.3311 
L 96.08806 138.809558 
L 99.797282 148.619872 
L 103.506504 157.804646 
L 107.215726 166.403766 
L 110.924948 174.454577 
L 114.63417 181.992039 
L 118.343393 189.048887 
L 122.247837 195.991583 
L 126.152281 202.469087 
L 130.056726 208.512569 
L 133.96117 214.151111 
L 137.865614 219.411844 
L 141.965281 224.556675 
L 146.064947 229.340161 
L 150.164614 233.787683 
L 154.459503 238.112337 
L 158.754391 242.119333 
L 163.04928 245.832002 
L 167.539391 249.422179 
L 172.224724 252.875348 
L 176.910057 256.052758 
L 181.790613 259.093049 
L 186.86639 261.987432 
L 192.13739 264.729312 
L 197.603612 267.314183 
L 203.265057 269.739507 
L 209.121723 272.004558 
L 215.173612 274.110266 
L 221.615945 276.116518 
L 228.448722 278.007835 
L 235.671944 279.772704 
L 243.285611 281.403425 
L 251.484944 282.929666 
L 260.269944 284.336138 
L 269.835832 285.637546 
L 280.18261 286.817255 
L 291.505498 287.882534 
L 304.194942 288.847508 
L 318.446164 289.701098 
L 334.649608 290.442194 
L 353.390941 291.071386 
L 375.841496 291.595222 
L 398.487273 291.949268 
L 398.487273 291.949268 
" clip-path="url(#pd2a1044b92)" style="fill: none; stroke-dasharray: 5.55,2.4; stroke-dashoffset: 0; stroke: #ff0000; stroke-width: 1.5"/>
   </g>
   <g id="patch_3">
    <path d="M 57.6 307.584 
L 57.6 41.472 
" style="fill: none; stroke: #000000; stroke-width: 0.8; stroke-linejoin: miter; stroke-linecap: square"/>
   </g>
   <g id="patch_4">
    <path d="M 414.72 307.584 
L 414.72 41.472 
" style="fill: none; stroke: #000000; stroke-width: 0.8; stroke-linejoin: miter; stroke-linecap: square"/>
   </g>
   <g id="patch_5">
    <path d="M 57.6 307.584 
L 414.72 307.584 
" style="fill: none; stroke: #000000; stroke-width: 0.8; stroke-linejoin: miter; stroke-linecap: square"/>
   </g>
   <g id="patch_6">
    <path d="M 57.6 41.472 
L 414.72 41.472 
" style="fill: none; stroke: #000000; stroke-width: 0.8; stroke-linejoin: miter; stroke-linecap: square"/>
   </g>
  </g>
  <g id="legend_1">
   <g id="patch_7">
    <path d="M 326.9 37.378125 
L 453.8 37.378125 
Q 455.8 37.378125 455.8 35.378125 
L 455.8 7 
Q 455.8 5 453.8 5 
L 326.9 5 
Q 324.9 5 324.9 7 
L 324.9 35.378125 
Q 324.9 37.378125 326.9 37.378125 
z
" style="fill: #ffffff; opacity: 0.8; stroke: #cccccc; stroke-linejoin: miter"/>
   </g>
   <g id="line2d_29">
    <path d="M 328.9 13.098437 
L 338.9 13.098437 
L 348.9 13.098437 
" style="fill: none; stroke: #000000; stroke-width: 1.5; stroke-linecap: square"/>
   </g>
   <g id="text_16">
    <!-- Spulenspannung -->
    <g transform="translate(356.9 16.598437) scale(0.1 -0.1)">
     <defs>
      <path id="DejaVuSans-6e" d="M 3513 2113 
L 3513 0 
L 2938 0 
L 2938 2094 
Q 2938 2591 2744 2837 
Q 2550 3084 2163 3084 
Q 1697 3084 1428 2787 
Q 1159 2491 1159 1978 
L 1159 0 
L 581 0 
L 581 3500 
L 1159 3500 
L 1159 2956 
Q 1366 3272 1645 3428 
Q 1925 3584 2291 3584 
Q 2894 3584 3203 3211 
Q 3513 2838 3513 2113 
z
" transform="scale(0.015625)"/>
      <path id="DejaVuSans-61" d="M 2194 1759 
Q 1497 1759 1228 1600 
Q 959 1441 959 1056 
Q 959 750 1161 570 
Q 1363 391 1709 391 
Q 2188 391 2477 730 
Q 2766 1069 2766 1631 
L 2766 1759 
L 2194 1759 
z
M 3341 1997 
L 3341 0 
L 2766 0 
L 2766 531 
Q 2569 213 2275 61 
Q 1981 -91 1556 -91 
Q 1019 -91 701 211 
Q 384 513 384 1019 
Q 384 1609 779 1909 
Q 1175 2209 1959 2209 
L 2766 2209 
L 2766 2266 
Q 2766 2663 2505 2880 
Q 2244 3097 1772 3097 
Q 1472 3097 1187 3025 
Q 903 2953 641 2809 
L 641 3341 
Q 956 3463 1253 3523 
Q 1550 3584 1831 3584 
Q 2591 3584 2966 3190 
Q 3341 2797 3341 1997 
z
" transform="scale(0.015625)"/>
      <path id="DejaVuSans-67" d="M 2906 1791 
Q 2906 2416 2648 2759 
Q 2391 3103 1925 3103 
Q 1463 3103 1205 2759 
Q 947 2416 947 1791 
Q 947 1169 1205 825 
Q 1463 481 1925 481 
Q 2391 481 2648 825 
Q 2906 1169 2906 1791 
z
M 3481 434 
Q 3481 -459 3084 -895 
Q 2688 -1331 1869 -1331 
Q 1566 -1331 1297 -1286 
Q 1028 -1241 775 -1147 
L 775 -588 
Q 1028 -725 1275 -790 
Q 1522 -856 1778 -856 
Q 2344 -856 2625 -561 
Q 2906 -266 2906 331 
L 2906 616 
Q 2728 306 2450 153 
Q 2172 0 1784 0 
Q 1141 0 747 490 
Q 353 981 353 1791 
Q 353 2603 747 3093 
Q 1141 3584 1784 3584 
Q 2172 3584 2450 3431 
Q 2728 3278 2906 2969 
L 2906 3500 
L 3481 3500 
L 3481 434 
z
" transform="scale(0.015625)"/>
     </defs>
     <use xlink:href="#DejaVuSans-53"/>
     <use xlink:href="#DejaVuSans-70" x="63.476562"/>
     <use xlink:href="#DejaVuSans-75" x="126.953125"/>
     <use xlink:href="#DejaVuSans-6c" x="190.332031"/>
     <use xlink:href="#DejaVuSans-65" x="218.115234"/>
     <use xlink:href="#DejaVuSans-6e" x="279.638672"/>
     <use xlink:href="#DejaVuSans-73" x="343.017578"/>
     <use xlink:href="#DejaVuSans-70" x="395.117188"/>
     <use xlink:href="#DejaVuSans-61" x="458.59375"/>
     <use xlink:href="#DejaVuSans-6e" x="519.873047"/>
     <use xlink:href="#DejaVuSans-6e" x="583.251953"/>
     <use xlink:href="#DejaVuSans-75" x="646.630859"/>
     <use xlink:href="#DejaVuSans-6e" x="710.009766"/>
     <use xlink:href="#DejaVuSans-67" x="773.388672"/>
    </g>
   </g>
   <g id="line2d_30">
    <path d="M 328.9 27.778125 
L 338.9 27.778125 
L 348.9 27.778125 
" style="fill: none; stroke-dasharray: 5.55,2.4; stroke-dashoffset: 0; stroke: #ff0000; stroke-width: 1.5"/>
   </g>
   <g id="text_17">
    <!-- $m * \mathrm{exp}(-\tau_L*t) + b$ -->
    <g transform="translate(356.9 31.278125) scale(0.1 -0.1)">
     <defs>
      <path id="DejaVuSans-Oblique-6d" d="M 5747 2113 
L 5338 0 
L 4763 0 
L 5166 2094 
Q 5191 2228 5203 2325 
Q 5216 2422 5216 2491 
Q 5216 2772 5059 2928 
Q 4903 3084 4622 3084 
Q 4203 3084 3875 2770 
Q 3547 2456 3450 1953 
L 3066 0 
L 2491 0 
L 2900 2094 
Q 2925 2209 2937 2307 
Q 2950 2406 2950 2484 
Q 2950 2769 2794 2926 
Q 2638 3084 2363 3084 
Q 1938 3084 1609 2770 
Q 1281 2456 1184 1953 
L 800 0 
L 225 0 
L 909 3500 
L 1484 3500 
L 1375 2956 
Q 1609 3263 1923 3423 
Q 2238 3584 2597 3584 
Q 2978 3584 3223 3384 
Q 3469 3184 3519 2828 
Q 3781 3197 4126 3390 
Q 4472 3584 4856 3584 
Q 5306 3584 5551 3325 
Q 5797 3066 5797 2591 
Q 5797 2488 5784 2364 
Q 5772 2241 5747 2113 
z
" transform="scale(0.015625)"/>
      <path id="DejaVuSans-2a" d="M 3009 3897 
L 1888 3291 
L 3009 2681 
L 2828 2375 
L 1778 3009 
L 1778 1831 
L 1422 1831 
L 1422 3009 
L 372 2375 
L 191 2681 
L 1313 3291 
L 191 3897 
L 372 4206 
L 1422 3572 
L 1422 4750 
L 1778 4750 
L 1778 3572 
L 2828 4206 
L 3009 3897 
z
" transform="scale(0.015625)"/>
      <path id="DejaVuSans-78" d="M 3513 3500 
L 2247 1797 
L 3578 0 
L 2900 0 
L 1881 1375 
L 863 0 
L 184 0 
L 1544 1831 
L 300 3500 
L 978 3500 
L 1906 2253 
L 2834 3500 
L 3513 3500 
z
" transform="scale(0.015625)"/>
      <path id="DejaVuSans-28" d="M 1984 4856 
Q 1566 4138 1362 3434 
Q 1159 2731 1159 2009 
Q 1159 1288 1364 580 
Q 1569 -128 1984 -844 
L 1484 -844 
Q 1016 -109 783 600 
Q 550 1309 550 2009 
Q 550 2706 781 3412 
Q 1013 4119 1484 4856 
L 1984 4856 
z
" transform="scale(0.015625)"/>
      <path id="DejaVuSans-2212" d="M 678 2272 
L 4684 2272 
L 4684 1741 
L 678 1741 
L 678 2272 
z
" transform="scale(0.015625)"/>
      <path id="DejaVuSans-Oblique-3c4" d="M 2103 638 
Q 2188 488 2525 488 
L 2800 488 
L 2706 0 
L 2363 0 
Q 1800 0 1600 300 
Q 1403 606 1534 1269 
L 1856 2925 
L 541 2925 
L 653 3500 
L 3881 3500 
L 3769 2925 
L 2444 2925 
L 2113 1234 
Q 2025 781 2103 638 
z
" transform="scale(0.015625)"/>
      <path id="DejaVuSans-Oblique-4c" d="M 1075 4666 
L 1709 4666 
L 909 525 
L 3181 525 
L 3078 0 
L 172 0 
L 1075 4666 
z
" transform="scale(0.015625)"/>
      <path id="DejaVuSans-29" d="M 513 4856 
L 1013 4856 
Q 1481 4119 1714 3412 
Q 1947 2706 1947 2009 
Q 1947 1309 1714 600 
Q 1481 -109 1013 -844 
L 513 -844 
Q 928 -128 1133 580 
Q 1338 1288 1338 2009 
Q 1338 2731 1133 3434 
Q 928 4138 513 4856 
z
" transform="scale(0.015625)"/>
      <path id="DejaVuSans-2b" d="M 2944 4013 
L 2944 2272 
L 4684 2272 
L 4684 1741 
L 2944 1741 
L 2944 0 
L 2419 0 
L 2419 1741 
L 678 1741 
L 678 2272 
L 2419 2272 
L 2419 4013 
L 2944 4013 
z
" transform="scale(0.015625)"/>
      <path id="DejaVuSans-Oblique-62" d="M 3169 2138 
Q 3169 2591 2961 2847 
Q 2753 3103 2388 3103 
Q 2122 3103 1889 2973 
Q 1656 2844 1484 2597 
Q 1303 2338 1198 1995 
Q 1094 1653 1094 1313 
Q 1094 881 1298 636 
Q 1503 391 1863 391 
Q 2134 391 2365 517 
Q 2597 644 2772 891 
Q 2950 1147 3059 1487 
Q 3169 1828 3169 2138 
z
M 1381 2969 
Q 1594 3256 1914 3420 
Q 2234 3584 2584 3584 
Q 3122 3584 3439 3221 
Q 3756 2859 3756 2241 
Q 3756 1734 3570 1259 
Q 3384 784 3041 416 
Q 2816 172 2522 40 
Q 2228 -91 1906 -91 
Q 1566 -91 1316 65 
Q 1066 222 909 531 
L 806 0 
L 231 0 
L 1178 4863 
L 1753 4863 
L 1381 2969 
z
" transform="scale(0.015625)"/>
     </defs>
     <use xlink:href="#DejaVuSans-Oblique-6d" transform="translate(0 0.015625)"/>
     <use xlink:href="#DejaVuSans-2a" transform="translate(116.894531 0.015625)"/>
     <use xlink:href="#DejaVuSans-65" transform="translate(186.376953 0.015625)"/>
     <use xlink:href="#DejaVuSans-78" transform="translate(247.900391 0.015625)"/>
     <use xlink:href="#DejaVuSans-70" transform="translate(307.080078 0.015625)"/>
     <use xlink:href="#DejaVuSans-28" transform="translate(370.556641 0.015625)"/>
     <use xlink:href="#DejaVuSans-2212" transform="translate(409.570312 0.015625)"/>
     <use xlink:href="#DejaVuSans-Oblique-3c4" transform="translate(493.359375 0.015625)"/>
     <use xlink:href="#DejaVuSans-Oblique-4c" transform="translate(553.564453 -16.390625) scale(0.7)"/>
     <use xlink:href="#DejaVuSans-2a" transform="translate(614.780273 0.015625)"/>
     <use xlink:href="#DejaVuSans-Oblique-74" transform="translate(684.262695 0.015625)"/>
     <use xlink:href="#DejaVuSans-29" transform="translate(723.47168 0.015625)"/>
     <use xlink:href="#DejaVuSans-2b" transform="translate(781.967773 0.015625)"/>
     <use xlink:href="#DejaVuSans-Oblique-62" transform="translate(885.239258 0.015625)"/>
    </g>
   </g>
  </g>
 </g>
 <defs>
  <clipPath id="pd2a1044b92">
   <rect x="57.6" y="41.472" width="357.12" height="266.112"/>
  </clipPath>
 </defs>
</svg>
